<svg width="306" height="303" viewBox="0 0 306 303" fill="none" xmlns="http://www.w3.org/2000/svg">
<path d="M40.1862 200.578C39.8915 200.793 39.5088 200.789 39.218 200.625C39.1049 200.561 39.001 200.481 38.9316 200.379C37.8707 198.909 36.8605 197.425 35.901 195.928C35.6327 195.501 35.7539 194.953 36.1846 194.687C36.6152 194.421 37.1665 194.541 37.4347 194.969C38.3549 196.423 39.349 197.897 40.3868 199.332C40.6734 199.728 40.5845 200.293 40.1862 200.578ZM106.937 77.7895C107.405 77.6079 107.625 77.0743 107.433 76.626C107.25 76.1618 106.712 75.943 106.261 76.1338C104.577 76.796 102.925 77.4764 101.305 78.175C100.854 78.3658 100.633 78.8994 100.826 79.3476C100.907 79.542 101.041 79.6814 101.202 79.7726C101.444 79.9095 101.735 79.925 102.007 79.8238C103.617 79.1412 105.269 78.4608 106.928 77.8056L106.937 77.7895ZM34.775 190.431C33.9353 188.874 33.1554 187.287 32.4494 185.72C32.241 185.263 31.7104 185.069 31.2589 185.26C30.7982 185.467 30.6032 185.994 30.7953 186.442C31.5153 188.059 32.3183 189.68 33.1812 191.271C33.2644 191.424 33.3915 191.539 33.5369 191.621C33.7953 191.767 34.1274 191.784 34.4106 191.626C34.8483 191.385 35.0271 190.849 34.7842 190.415L34.775 190.431ZM87.9071 85.3189C87.6896 84.8776 87.1244 84.707 86.696 84.932C85.0698 85.7543 83.4851 86.5787 81.9328 87.4214C81.4951 87.6625 81.3324 88.2075 81.5753 88.6419C81.6586 88.7951 81.7856 88.9093 81.931 88.9914C82.1895 89.1374 82.5215 89.1551 82.8048 88.9967C84.348 88.17 85.9165 87.3365 87.5174 86.5211C87.9619 86.3052 88.15 85.7533 87.9071 85.3189ZM28.9708 175.858C28.8385 175.38 28.3469 175.081 27.8561 175.229C27.3744 175.36 27.0733 175.848 27.2218 176.335C27.6699 178.053 28.201 179.775 28.8081 181.477C28.88 181.688 29.0371 181.861 29.2148 181.962C29.441 182.089 29.7061 182.112 29.9688 182.027C30.4435 181.87 30.68 181.346 30.5223 180.874C29.9291 179.223 29.4211 177.535 28.9869 175.867L28.9708 175.858ZM126.481 68.9158C124.753 69.4682 123.066 70.0228 121.379 70.5774C120.905 70.7339 120.652 71.2492 120.81 71.7204C120.881 71.9308 121.039 72.1045 121.216 72.2048C121.426 72.3235 121.708 72.355 121.945 72.2768C123.615 71.7131 125.302 71.1585 127.005 70.613C127.479 70.4565 127.748 69.9503 127.591 69.4791C127.433 69.0079 126.923 68.7411 126.448 68.8976L126.481 68.9158ZM54.6471 214.86C53.3124 213.681 52.0214 212.464 50.7719 211.249C50.4254 210.883 49.8329 210.909 49.49 211.246C49.1379 211.599 49.1482 212.178 49.5131 212.512C50.7696 213.752 52.1021 214.972 53.4438 216.176C53.4922 216.203 53.5477 216.256 53.5961 216.283C53.9515 216.484 54.4379 216.419 54.7209 216.112C55.0568 215.749 55.0212 215.177 54.6563 214.844L54.6471 214.86ZM117.466 72.889C117.3 72.4339 116.78 72.1831 116.306 72.3396C114.608 72.9514 112.926 73.5723 111.269 74.1864C110.802 74.368 110.574 74.8765 110.732 75.3476C110.813 75.542 110.954 75.7066 111.132 75.8069C111.358 75.9347 111.639 75.9662 111.911 75.865C113.551 75.2419 115.224 74.637 116.922 74.0251C117.381 73.8595 117.633 73.3441 117.476 72.873L117.466 72.889ZM148.194 63.645C148.061 63.1669 147.57 62.868 147.088 62.9993C145.332 63.4511 143.618 63.905 141.903 64.3589C141.422 64.4903 141.137 64.9874 141.269 65.4655C141.322 65.708 141.496 65.8907 141.689 66.0002C141.883 66.1097 142.139 66.1482 142.367 66.086C144.066 65.6229 145.78 65.169 147.527 64.7333C148.009 64.602 148.31 64.114 148.177 63.6359L148.194 63.645ZM47.0969 207.474C45.8864 206.154 44.7266 204.819 43.6244 203.496C43.3125 203.108 42.7406 203.061 42.3493 203.37C41.9579 203.68 41.9105 204.248 42.2225 204.636C43.3316 205.984 44.5145 207.353 45.7573 208.692C45.8197 208.77 45.9005 208.815 45.9813 208.861C46.3205 209.053 46.747 209.018 47.037 208.736C47.4052 208.392 47.4273 207.831 47.0969 207.474ZM132.134 69.0521C133.818 68.5387 135.519 68.0345 137.252 67.5484C137.733 67.4171 138.002 66.9109 137.886 66.4419C137.754 65.9638 137.244 65.697 136.771 65.8123C135.029 66.3143 133.313 66.8095 131.628 67.3229C131.154 67.4793 130.878 67.9604 131.026 68.4476C131.089 68.6741 131.246 68.8477 131.44 68.9572C131.65 69.0759 131.906 69.1143 132.143 69.0361L132.134 69.0521ZM34.5392 130.814C34.9754 131.06 35.5077 130.915 35.7721 130.491C36.6362 128.984 37.5903 127.506 38.5767 126.046C38.8572 125.631 38.7455 125.08 38.3277 124.802C37.9169 124.548 37.3545 124.634 37.074 125.049C36.053 126.531 35.0875 128.066 34.1889 129.597C33.9407 130.03 34.0777 130.574 34.5139 130.821L34.5392 130.814ZM31.1829 139.914C31.8025 138.311 32.5142 136.697 33.2906 135.118C33.5065 134.667 33.3188 134.137 32.8642 133.922C32.4096 133.708 31.8751 133.894 31.6592 134.346C30.8644 135.956 30.1412 137.628 29.4941 139.279C29.3381 139.7 29.4957 140.172 29.8835 140.391C29.9158 140.409 29.9642 140.436 29.9965 140.454C30.4695 140.637 30.9901 140.4 31.1645 139.947L31.1829 139.914ZM40.4298 121.955C40.4298 121.955 40.5105 122.001 40.5428 122.019C40.9306 122.238 41.4353 122.141 41.7044 121.784C42.7602 120.427 43.8919 119.049 45.063 117.715C45.3828 117.344 45.3472 116.772 44.9731 116.455C44.599 116.137 44.0227 116.173 43.7029 116.544C42.5135 117.91 41.3563 119.294 40.2822 120.683C39.9694 121.08 40.0557 121.638 40.439 121.939L40.4298 121.955ZM47.3684 113.88C47.3684 113.88 47.4793 113.985 47.5439 114.022C47.8993 114.223 48.3442 114.155 48.6341 113.873C49.8331 112.64 51.1242 111.395 52.4292 110.2C52.7975 109.856 52.8195 109.296 52.473 108.93C52.1265 108.564 51.5616 108.543 51.1934 108.886C49.8699 110.113 48.5696 111.374 47.3362 112.631C46.9841 112.984 46.9944 113.563 47.3592 113.896L47.3684 113.88ZM91.467 84.1453C91.7093 84.2822 92.0322 84.3159 92.3062 84.1736C93.8865 83.4315 95.492 82.6825 97.1391 81.9358C97.5998 81.729 97.7949 81.2023 97.5865 80.7449C97.3782 80.2876 96.8476 80.094 96.3868 80.3008C94.7236 81.0384 93.118 81.7874 91.5194 82.5615C91.0748 82.7775 90.8798 83.3042 91.0882 83.7615C91.1623 83.9307 91.2962 84.0701 91.4578 84.1614L91.467 84.1453ZM27.2389 165.561C27.1989 165.071 26.7694 164.701 26.2599 164.732C25.7666 164.771 25.3939 165.198 25.4248 165.703C25.5617 167.479 25.7887 169.284 26.0847 171.044C26.1359 171.327 26.3069 171.551 26.5331 171.679C26.7108 171.78 26.9253 171.816 27.1351 171.786C27.6306 171.705 27.964 171.235 27.8732 170.759C27.575 169.041 27.362 167.286 27.2298 165.577L27.2389 165.561ZM63.5208 99.9914C63.6063 100.103 63.6941 100.174 63.8072 100.238C64.1141 100.411 64.4899 100.39 64.7754 100.191C66.1868 99.1834 67.6398 98.1783 69.1342 97.1755C69.5487 96.9002 69.6538 96.3439 69.3763 95.9324C69.0989 95.521 68.5385 95.4167 68.124 95.6921C66.6042 96.7018 65.1259 97.7137 63.7053 98.737C63.307 99.0215 63.2181 99.5869 63.5047 99.9823L63.5208 99.9914ZM29.4905 144.881C29.6326 144.41 29.3688 143.9 28.8844 143.775C28.4092 143.634 27.9118 143.905 27.7697 144.377C27.2518 146.101 26.8147 147.871 26.4628 149.604C26.392 149.988 26.5795 150.37 26.9026 150.553C26.9833 150.598 27.0641 150.644 27.1633 150.657C27.6407 150.757 28.1243 150.436 28.2249 149.962C28.5745 148.27 29.0002 146.558 29.4905 144.881ZM60.6843 102.104C60.3724 101.716 59.8097 101.653 59.4275 101.946C57.9932 103.068 56.6004 104.192 55.2492 105.318C54.8739 105.637 54.8266 106.205 55.1477 106.577C55.2101 106.655 55.2978 106.726 55.3948 106.78C55.7179 106.963 56.1352 106.944 56.4321 106.687C57.758 105.568 59.1255 104.451 60.5505 103.345C60.9419 103.035 61.0054 102.477 60.7096 102.097L60.6843 102.104ZM27.4043 155.124C27.4564 154.623 27.1052 154.191 26.6002 154.139C26.0952 154.088 25.6601 154.436 25.608 154.938C25.4199 156.721 25.3056 158.524 25.2743 160.332C25.2726 160.671 25.4484 160.961 25.7392 161.126C25.8684 161.199 26.016 161.24 26.1659 161.239C26.6731 161.25 27.069 160.858 27.0796 160.354C27.1156 158.613 27.2184 156.866 27.3951 155.14L27.4043 155.124ZM78.5098 90.3707C78.267 89.9363 77.7088 89.7909 77.262 90.048C75.689 90.964 74.1575 91.8822 72.6513 92.7934C72.2207 93.0597 72.0995 93.6069 72.3677 94.0344C72.444 94.1624 72.5549 94.2675 72.6841 94.3405C72.9588 94.4956 73.3162 94.5064 73.6086 94.3319C75.0986 93.4115 76.6209 92.5094 78.1686 91.6003C78.6062 91.3592 78.7527 90.8051 78.4845 90.3776L78.5098 90.3707ZM183.797 256.348C182.008 256.335 180.237 256.29 178.467 256.245C177.96 256.235 177.548 256.618 177.537 257.121C177.535 257.46 177.718 257.776 177.993 257.931C178.122 258.004 178.269 258.045 178.419 258.044C180.19 258.089 181.986 258.127 183.791 258.149C184.282 258.15 184.704 257.751 184.705 257.264C184.706 256.777 184.305 256.358 183.813 256.357L183.797 256.348ZM162.483 255.327C160.694 255.165 158.93 254.997 157.175 254.812C156.67 254.76 156.235 255.109 156.183 255.61C156.147 255.972 156.336 256.313 156.643 256.486C156.74 256.541 156.862 256.589 156.987 256.595C158.758 256.789 160.547 256.951 162.337 257.112C162.825 257.155 163.27 256.79 163.313 256.305C163.356 255.819 162.988 255.378 162.499 255.336L162.483 255.327ZM173.134 256.035C171.34 255.956 169.564 255.845 167.814 255.727C167.316 255.7 166.888 256.074 166.845 256.559C166.818 256.905 167.017 257.23 167.308 257.394C167.421 257.458 167.552 257.489 167.693 257.505C169.469 257.616 171.244 257.728 173.054 257.816C173.552 257.843 173.964 257.46 173.991 256.965C174.018 256.471 173.641 256.046 173.134 256.035ZM130.864 250.607C129.111 250.233 127.376 249.826 125.667 249.413C125.183 249.288 124.692 249.584 124.583 250.074C124.486 250.466 124.681 250.873 125.02 251.064C125.085 251.101 125.165 251.146 125.248 251.151C126.974 251.573 128.717 251.964 130.486 252.347C130.98 252.456 131.454 252.151 131.564 251.661C131.674 251.171 131.366 250.7 130.873 250.591L130.864 250.607ZM151.88 254.199C150.102 253.98 148.343 253.73 146.593 253.463C146.097 253.395 145.629 253.725 145.561 254.218C145.499 254.586 145.696 254.952 146.003 255.125C146.1 255.18 146.206 255.219 146.321 255.241C148.072 255.508 149.857 255.752 151.635 255.971C152.13 256.039 152.591 255.683 152.634 255.198C152.702 254.706 152.344 254.249 151.855 254.206L151.88 254.199ZM141.334 252.637C139.561 252.336 137.822 252.012 136.083 251.687C135.596 251.604 135.122 251.909 135.012 252.399C134.942 252.783 135.129 253.165 135.452 253.348C135.533 253.393 135.614 253.439 135.738 253.446C137.493 253.779 139.248 254.112 141.022 254.413C141.508 254.497 141.976 254.167 142.06 253.684C142.145 253.201 141.812 252.737 141.325 252.653L141.334 252.637ZM194.474 256.265C192.673 256.309 190.907 256.331 189.141 256.352C188.65 256.351 188.245 256.759 188.244 257.246C188.242 257.585 188.427 257.859 188.702 258.014C188.831 258.087 188.995 258.137 189.154 258.121C190.936 258.109 192.727 258.08 194.528 258.036C195.028 258.021 195.417 257.604 195.418 257.117C195.404 256.62 194.983 256.234 194.492 256.233L194.474 256.265ZM215.779 254.988C213.997 255.149 212.225 255.294 210.452 255.439C209.959 255.479 209.586 255.906 209.617 256.411C209.634 256.718 209.828 256.976 210.07 257.113C210.215 257.195 210.405 257.238 210.58 257.231C212.352 257.086 214.141 256.95 215.932 256.773C216.426 256.733 216.791 256.282 216.751 255.792C216.711 255.302 216.256 254.939 215.763 254.979L215.779 254.988ZM227.396 254.608C227.331 254.125 226.876 253.762 226.389 253.827C224.612 254.054 222.853 254.25 221.095 254.445C220.592 254.501 220.236 254.937 220.292 255.435C220.334 255.735 220.496 255.975 220.738 256.112C220.9 256.203 221.089 256.246 221.289 256.232C223.048 256.037 224.832 255.835 226.609 255.607C227.096 255.542 227.461 255.091 227.396 254.608ZM205.129 255.808C203.333 255.919 201.572 256.007 199.795 256.086C199.295 256.1 198.906 256.518 198.937 257.023C198.944 257.346 199.129 257.62 199.387 257.766C199.533 257.848 199.697 257.898 199.872 257.891C201.649 257.812 203.436 257.718 205.232 257.607C205.741 257.576 206.114 257.15 206.074 256.66C206.034 256.171 205.613 255.785 205.12 255.824L205.129 255.808ZM71.6688 227.51C70.1547 226.57 68.6751 225.607 67.2139 224.612C66.7983 224.292 66.2407 224.444 65.9693 224.843C65.6888 225.258 65.8005 225.809 66.2021 226.078C67.6634 227.073 69.1753 228.055 70.7056 229.004L70.7379 229.022C71.1579 229.26 71.681 229.13 71.9523 228.732C72.2167 228.308 72.0889 227.747 71.678 227.494L71.6688 227.51ZM178.856 57.9095C179.351 57.8285 179.669 57.3496 179.587 56.8577C179.496 56.3819 179.023 56.0509 178.527 56.1319C176.753 56.4669 175.003 56.795 173.27 57.1323C172.782 57.2385 172.457 57.6922 172.555 58.1932C172.616 58.4609 172.771 58.6757 172.997 58.8034C173.174 58.9038 173.405 58.9492 173.624 58.903C175.357 58.5658 177.106 58.2376 178.881 57.9026L178.856 57.9095ZM168.002 58.19C166.234 58.5502 164.483 58.9195 162.763 59.3071C162.275 59.4132 161.958 59.8921 162.065 60.3771C162.125 60.6448 162.289 60.8436 162.499 60.9622C162.693 61.0717 162.907 61.1079 163.142 61.0709C164.862 60.6833 166.604 60.33 168.372 59.9698C168.86 59.8637 169.168 59.4008 169.071 58.8998C168.964 58.4148 168.481 58.0998 167.993 58.206L168.002 58.19ZM120.503 248.088C118.78 247.624 117.066 247.144 115.377 246.658C114.902 246.517 114.405 246.788 114.262 247.259C114.141 247.658 114.317 248.097 114.672 248.298C114.737 248.334 114.786 248.362 114.859 248.382C116.564 248.878 118.294 249.367 120.033 249.84C120.518 249.965 121.015 249.694 121.141 249.213C121.267 248.732 120.978 248.229 120.51 248.113L120.503 248.088ZM80.8729 232.794C79.659 232.151 78.4705 231.501 77.3073 230.844L76.2249 230.232C75.8578 229.94 75.2403 230.122 74.9921 230.555C74.7438 230.988 74.8809 231.532 75.3171 231.779L76.4156 232.399C77.595 233.065 78.7904 233.741 80.0297 234.377C80.4659 234.623 81.0166 234.446 81.2486 234.004C81.4968 233.571 81.3252 233.049 80.8729 232.794ZM62.9016 221.539C61.461 220.471 60.0711 219.388 58.7065 218.299C58.3233 217.998 57.7469 218.033 57.4341 218.43C57.1051 218.817 57.1661 219.382 57.5655 219.693C58.9371 220.807 60.3593 221.907 61.816 222.985C61.8483 223.003 61.8806 223.022 61.9129 223.04C62.3007 223.259 62.8054 223.162 63.0837 222.788C63.3804 222.383 63.294 221.824 62.9016 221.539ZM157.539 60.4745C155.785 60.885 154.031 61.2956 152.319 61.7083C151.838 61.8396 151.546 62.3116 151.653 62.7966C151.722 63.0482 151.87 63.2379 152.08 63.3565C152.274 63.466 152.505 63.5114 152.733 63.4492C154.445 63.0364 156.183 62.6168 157.927 62.2223C158.416 62.1161 158.717 61.6281 158.61 61.1431C158.503 60.6581 158.011 60.3592 157.523 60.4654L157.539 60.4745ZM100.253 241.554C98.5895 240.912 96.9352 240.253 95.3063 239.588C94.8425 239.39 94.315 239.601 94.1314 240.071C93.95 240.499 94.1238 240.979 94.5116 241.198C94.5439 241.216 94.5762 241.235 94.6085 241.253C96.2444 241.943 97.8986 242.602 99.6036 243.246C100.077 243.429 100.597 243.192 100.772 242.739C100.955 242.269 100.733 241.761 100.26 241.579L100.253 241.554ZM110.293 245.081C108.6 244.528 106.906 243.975 105.241 243.374C104.775 243.217 104.254 243.453 104.096 243.916C103.94 244.337 104.132 244.785 104.504 244.995C104.552 245.023 104.601 245.05 104.649 245.077C106.324 245.663 108.024 246.241 109.743 246.787C110.209 246.944 110.722 246.682 110.89 246.204C111.048 245.741 110.784 245.231 110.318 245.074L110.293 245.081ZM190.134 55.0239C190.052 54.532 189.579 54.201 189.099 54.2911C187.327 54.585 185.555 54.8788 183.814 55.1909C183.319 55.2719 182.986 55.7416 183.083 56.2427C183.134 56.5264 183.306 56.7503 183.532 56.8781C183.709 56.9785 183.924 57.0147 184.134 56.9846C185.874 56.6725 187.621 56.3855 189.393 56.0917C189.889 56.0107 190.222 55.5409 190.131 55.0651L190.134 55.0239ZM90.4101 237.459C88.7765 236.727 87.1774 235.973 85.5967 235.186C85.1421 234.972 84.6075 235.158 84.3847 235.584C84.178 236.019 84.3334 236.532 84.7373 236.76L84.7857 236.787C86.3757 237.558 88.0071 238.331 89.6569 239.072C90.1114 239.286 90.639 239.074 90.8549 238.623C91.0708 238.172 90.8486 237.664 90.4032 237.434L90.4101 237.459Z" fill="#5A61FF"/>
<path d="M234.248 23.3535C229.497 23.3535 225.644 27.2057 225.644 31.9577C225.644 36.7096 229.497 40.5618 234.248 40.5618C239 40.5618 242.853 36.7096 242.853 31.9577C242.853 27.2057 239 23.3535 234.248 23.3535ZM234.248 23.3535C230.832 23.3535 221.086 23.3535 214.784 16.5119C213.915 15.5692 212.503 15.252 211.424 15.9439C205.648 19.6485 199.602 24.8326 208.435 27.041C218.268 29.4993 219.498 28.2702 218.269 41.791M218.268 20.8967C218.268 20.8967 212.123 23.3535 209.665 27.041M194.915 55.3118L244.082 40.5618M231.176 54.2671L244.082 50.3952M229.332 9.83268C229.332 12.5481 227.131 14.7493 224.415 14.7493C221.7 14.7493 219.498 12.5481 219.498 9.83268C219.498 7.11728 221.7 4.91602 224.415 4.91602C227.131 4.91602 229.332 7.11728 229.332 9.83268ZM211.568 40.9916C211.568 45.7435 207.715 49.5957 202.964 49.5957C198.212 49.5957 194.359 45.7435 194.359 40.9916C194.359 36.2396 198.212 32.3874 202.964 32.3874C207.715 32.3874 211.568 36.2396 211.568 40.9916Z" stroke="#5A61FF" stroke-width="1.5" stroke-linecap="round" stroke-linejoin="round"/>
</svg>
