<svg width="50" height="48" viewBox="0 0 50 48" fill="none" xmlns="http://www.w3.org/2000/svg">
<path d="M0.361584 16.704C1.32158 14.016 2.50559 11.648 3.91359 9.6C5.38559 7.616 7.27359 5.856 9.57759 4.32C11.5616 2.976 13.8016 1.92 16.2976 1.152C18.7936 0.384001 21.4816 3.30844e-07 24.3616 2.965e-07C29.1616 2.39261e-07 33.4176 1.024 37.1296 3.072C40.9056 5.184 43.8496 8.032 45.9616 11.616C48.1376 15.264 49.2256 19.36 49.2256 23.904C49.2256 28.512 48.1376 32.608 45.9616 36.192C43.8496 39.84 40.9056 42.688 37.1296 44.736C33.4176 46.848 29.1616 47.904 24.3616 47.904C21.5456 47.904 18.8896 47.52 16.3936 46.752C13.9616 46.048 11.7216 44.992 9.67359 43.584C7.30559 42.048 5.41759 40.288 4.00959 38.304C2.60159 36.32 1.38558 33.888 0.361584 31.008C-0.150416 29.536 -0.118415 28.256 0.457585 27.168C1.03358 26.144 1.86559 25.44 2.95359 25.056C4.04159 24.672 5.09759 24.736 6.12159 25.248C7.20959 25.76 8.04159 26.784 8.61759 28.32C9.25759 30.24 9.99359 31.808 10.8256 33.024C11.7216 34.24 12.9376 35.392 14.4736 36.48C15.8176 37.376 17.3216 38.048 18.9856 38.496C20.6496 39.008 22.4416 39.264 24.3616 39.264C27.4976 39.264 30.2816 38.592 32.7136 37.248C35.2096 35.968 37.1296 34.176 38.4736 31.872C39.8816 29.568 40.5856 26.912 40.5856 23.904C40.5856 20.896 39.8816 18.24 38.4736 15.936C37.1296 13.632 35.2096 11.84 32.7136 10.56C30.2816 9.28 27.4976 8.64 24.3616 8.64C22.4416 8.64 20.6176 8.864 18.8896 9.312C17.2256 9.824 15.7216 10.528 14.3776 11.424C13.3536 12.128 12.4896 12.864 11.7856 13.632C11.0816 14.464 10.4736 15.36 9.96158 16.32C9.44958 17.28 9.00159 18.336 8.61759 19.488C8.04159 21.024 7.20959 22.048 6.12159 22.56C5.09759 23.072 4.04159 23.136 2.95359 22.752C1.86559 22.368 1.03358 21.632 0.457585 20.544C-0.118415 19.52 -0.150416 18.24 0.361584 16.704Z" fill="#EA6060"/>
</svg>
