<svg width="334" height="89" viewBox="0 0 334 89" fill="none" xmlns="http://www.w3.org/2000/svg">
<path d="M49.936 12.672C48.912 14.528 47.92 16.384 46.96 18.24C46 20.032 45.008 21.824 43.984 23.616C42.704 25.92 41.52 28.064 40.432 30.048C39.344 32.032 38.256 34.016 37.168 36C36.08 37.984 34.928 40.128 33.712 42.432C32.816 44.096 32.016 45.888 31.312 47.808C30.608 49.728 30.256 51.776 30.256 53.952C30.256 55.36 30.256 56.704 30.256 57.984C30.256 59.264 30.256 60.48 30.256 61.632C30.256 62.784 30.256 63.904 30.256 64.992C30.256 66.08 30.256 67.136 30.256 68.16C30.256 69.44 29.968 70.496 29.392 71.328C28.816 72.096 28.08 72.608 27.184 72.864C26.352 73.12 25.488 73.12 24.592 72.864C23.76 72.608 23.056 72.096 22.48 71.328C21.904 70.496 21.616 69.44 21.616 68.16C21.616 67.2 21.616 66.208 21.616 65.184C21.616 64.16 21.616 63.072 21.616 61.92C21.616 60.768 21.616 59.52 21.616 58.176C21.616 56.832 21.616 55.392 21.616 53.856C21.616 51.424 21.424 49.44 21.04 47.904C20.72 46.368 20.208 44.992 19.504 43.776C18.864 42.496 18.032 41.184 17.008 39.84C16.048 38.432 14.96 36.672 13.744 34.56C12.72 32.704 11.76 31.008 10.864 29.472C9.968 27.872 9.072 26.24 8.176 24.576C7.344 22.912 6.416 21.12 5.392 19.2C4.368 17.28 3.184 15.072 1.84 12.576C1.072 11.168 0.88 9.92 1.264 8.832C1.648 7.67999 2.352 6.848 3.376 6.336C4.4 5.76 5.488 5.632 6.64 5.952C7.792 6.208 8.752 7.072 9.52 8.544C10.8 10.976 11.952 13.152 12.976 15.072C14 16.928 14.928 18.688 15.76 20.352C16.656 21.952 17.52 23.552 18.352 25.152C19.248 26.752 20.208 28.448 21.232 30.24C22.768 32.864 24.08 35.04 25.168 36.768C26.32 38.432 27.28 40 28.048 41.472C28.816 42.944 29.36 44.64 29.68 46.56C30.064 48.416 30.256 50.848 30.256 53.856C30.256 55.776 30.256 57.568 30.256 59.232C30.256 60.896 30.256 62.464 30.256 63.936C30.256 65.344 30.256 66.752 30.256 68.16C30.256 69.44 29.968 70.496 29.392 71.328C28.816 72.096 28.08 72.608 27.184 72.864C26.352 73.12 25.488 73.12 24.592 72.864C23.76 72.608 23.056 72.096 22.48 71.328C21.904 70.496 21.616 69.44 21.616 68.16C21.616 67.2 21.616 66.208 21.616 65.184C21.616 64.16 21.616 63.072 21.616 61.92C21.616 60.768 21.616 59.552 21.616 58.272C21.616 56.928 21.616 55.488 21.616 53.952C21.616 50.944 22.032 48.16 22.864 45.6C23.76 43.04 24.816 40.64 26.032 38.4C27.312 36.032 28.496 33.856 29.584 31.872C30.672 29.888 31.76 27.904 32.848 25.92C33.936 23.936 35.152 21.76 36.496 19.392C37.136 18.176 37.776 16.96 38.416 15.744C39.056 14.528 39.696 13.312 40.336 12.096C41.04 10.88 41.744 9.664 42.448 8.44799C43.216 7.04 44.176 6.208 45.328 5.952C46.48 5.632 47.536 5.76 48.496 6.336C49.52 6.848 50.224 7.67999 50.608 8.832C50.992 9.984 50.768 11.264 49.936 12.672ZM165.305 84C165.305 82.72 165.305 81.312 165.305 79.776C165.305 78.24 165.305 76.608 165.305 74.88C165.305 73.216 165.305 71.52 165.305 69.792C165.305 68.128 165.305 66.208 165.305 64.032C165.305 61.856 165.305 59.424 165.305 56.736C165.305 53.984 165.305 51.072 165.305 48C165.305 43.136 166.297 38.848 168.281 35.136C170.265 31.424 172.985 28.512 176.441 26.4C179.897 24.288 183.833 23.232 188.249 23.232C192.601 23.232 196.505 24.32 199.961 26.496C203.481 28.608 206.265 31.552 208.313 35.328C210.361 39.04 211.385 43.328 211.385 48.192C211.385 51.84 210.777 55.2 209.561 58.272C208.409 61.28 206.777 63.904 204.665 66.144C202.553 68.32 200.089 70.016 197.273 71.232C194.521 72.448 191.545 73.056 188.345 73.056C185.081 73.056 182.041 72.448 179.225 71.232C176.409 69.952 173.945 68.224 171.833 66.048C169.785 63.808 168.185 61.184 167.033 58.176C165.881 55.168 165.305 51.904 165.305 48.384C165.305 46.272 165.305 44 165.305 41.568C165.305 39.072 165.305 36.704 165.305 34.464C165.305 32.16 165.305 30.24 165.305 28.704C165.305 27.04 165.721 25.824 166.553 25.056C167.449 24.224 168.473 23.808 169.625 23.808C170.777 23.808 171.769 24.224 172.601 25.056C173.497 25.888 173.945 27.104 173.945 28.704C173.945 31.008 173.945 33.056 173.945 34.848C173.945 36.64 173.945 38.56 173.945 40.608C173.945 42.656 173.945 45.248 173.945 48.384C173.945 50.688 174.297 52.8 175.001 54.72C175.705 56.64 176.697 58.336 177.977 59.808C179.257 61.28 180.761 62.432 182.489 63.264C184.281 64.032 186.233 64.416 188.345 64.416C190.393 64.416 192.281 64.032 194.009 63.264C195.801 62.432 197.337 61.312 198.617 59.904C199.897 58.432 200.889 56.704 201.593 54.72C202.361 52.736 202.745 50.56 202.745 48.192C202.745 45.824 202.393 43.648 201.689 41.664C200.985 39.68 199.993 37.952 198.713 36.48C197.433 35.008 195.897 33.888 194.105 33.12C192.313 32.288 190.361 31.872 188.249 31.872C185.369 31.872 182.841 32.576 180.665 33.984C178.553 35.328 176.889 37.216 175.673 39.648C174.521 42.08 173.945 44.864 173.945 48C173.945 50.112 173.945 52.352 173.945 54.72C173.945 57.024 173.945 59.424 173.945 61.92C173.945 64.352 173.945 66.816 173.945 69.312C173.945 71.488 173.945 73.376 173.945 74.976C173.945 76.576 173.945 78.08 173.945 79.488C173.945 80.896 173.945 82.4 173.945 84C173.945 85.6 173.497 86.816 172.601 87.648C171.769 88.48 170.777 88.896 169.625 88.896C168.473 88.896 167.449 88.48 166.553 87.648C165.721 86.816 165.305 85.6 165.305 84ZM221.751 68.16C221.751 66.816 221.751 65.376 221.751 63.84C221.751 62.304 221.751 60.768 221.751 59.232C221.751 57.696 221.751 56.256 221.751 54.912C221.751 49.792 221.751 44.192 221.751 38.112C221.751 32.032 221.751 25.184 221.751 17.568C221.751 15.84 221.751 13.824 221.751 11.52C221.751 9.216 221.751 7.136 221.751 5.27999C221.751 3.68 222.167 2.464 222.999 1.632C223.895 0.799995 224.919 0.383995 226.071 0.383995C227.223 0.383995 228.215 0.799995 229.047 1.632C229.943 2.464 230.391 3.68 230.391 5.27999C230.391 6.816 230.391 8.256 230.391 9.6C230.391 10.88 230.391 12.192 230.391 13.536C230.391 14.816 230.391 16.16 230.391 17.568C230.391 20.96 230.391 24.576 230.391 28.416C230.391 32.256 230.391 36.384 230.391 40.8C230.391 45.152 230.391 49.856 230.391 54.912C230.391 56.512 230.391 58.016 230.391 59.424C230.391 60.832 230.391 62.24 230.391 63.648C230.391 65.056 230.391 66.56 230.391 68.16C230.391 69.76 229.943 70.976 229.047 71.808C228.215 72.64 227.223 73.056 226.071 73.056C224.919 73.056 223.895 72.64 222.999 71.808C222.167 70.976 221.751 69.76 221.751 68.16ZM287.074 28.608C287.074 30.272 287.074 31.808 287.074 33.216C287.074 34.624 287.074 36.128 287.074 37.728C287.074 39.264 287.074 41.056 287.074 43.104C287.074 45.088 287.074 47.456 287.074 50.208C287.074 53.856 286.498 57.088 285.346 59.904C284.194 62.72 282.562 65.12 280.45 67.104C278.402 69.024 275.97 70.496 273.154 71.52C270.402 72.544 267.394 73.056 264.13 73.056C260.866 73.056 257.826 72.448 255.01 71.232C252.194 70.016 249.73 68.288 247.618 66.048C245.506 63.808 243.874 61.184 242.722 58.176C241.57 55.104 240.994 51.744 240.994 48.096C240.994 43.232 241.986 38.944 243.97 35.232C246.018 31.456 248.77 28.512 252.226 26.4C255.746 24.288 259.682 23.232 264.034 23.232C267.298 23.232 270.306 23.84 273.058 25.056C275.874 26.208 278.306 27.904 280.354 30.144C282.466 32.32 284.098 34.912 285.25 37.92C286.466 40.928 287.074 44.256 287.074 47.904C287.074 49.376 287.074 50.816 287.074 52.224C287.074 53.568 287.074 54.88 287.074 56.16C287.074 57.376 287.074 58.528 287.074 59.616C287.074 61.344 287.074 62.944 287.074 64.416C287.074 65.888 287.074 67.488 287.074 69.216C287.074 70.816 286.626 72.032 285.73 72.864C284.898 73.696 283.906 74.112 282.754 74.112C281.602 74.112 280.578 73.696 279.682 72.864C278.85 72.032 278.434 70.816 278.434 69.216C278.434 68.192 278.434 67.136 278.434 66.048C278.434 64.96 278.434 63.904 278.434 62.88C278.434 61.792 278.434 60.704 278.434 59.616C278.434 58.912 278.434 57.824 278.434 56.352C278.434 54.816 278.434 53.28 278.434 51.744C278.434 50.144 278.434 48.864 278.434 47.904C278.434 44.768 277.826 41.984 276.61 39.552C275.394 37.12 273.698 35.232 271.522 33.888C269.346 32.544 266.85 31.872 264.034 31.872C261.922 31.872 259.97 32.288 258.178 33.12C256.386 33.888 254.85 35.008 253.57 36.48C252.354 37.888 251.394 39.584 250.69 41.568C249.986 43.552 249.634 45.728 249.634 48.096C249.634 50.464 249.986 52.64 250.69 54.624C251.394 56.608 252.386 58.336 253.666 59.808C254.946 61.28 256.482 62.432 258.274 63.264C260.066 64.032 262.018 64.416 264.13 64.416C266.242 64.416 268.162 64.128 269.89 63.552C271.682 62.976 273.218 62.112 274.498 60.96C275.778 59.744 276.738 58.24 277.378 56.448C278.082 54.656 278.434 52.576 278.434 50.208C278.434 48.352 278.434 46.4 278.434 44.352C278.434 42.304 278.434 40.288 278.434 38.304C278.434 36.32 278.434 34.496 278.434 32.832C278.434 31.104 278.434 29.696 278.434 28.608C278.434 27.008 278.85 25.792 279.682 24.96C280.578 24.128 281.602 23.712 282.754 23.712C283.906 23.712 284.898 24.128 285.73 24.96C286.626 25.792 287.074 27.008 287.074 28.608ZM325.473 34.368C324.321 33.856 323.169 33.408 322.017 33.024C320.865 32.64 319.713 32.352 318.561 32.16C317.473 31.968 316.385 31.872 315.297 31.872C313.825 31.872 312.449 32.064 311.169 32.448C309.889 32.832 308.833 33.44 308.001 34.272C307.233 35.04 306.849 36.064 306.849 37.344C306.849 38.176 307.201 38.944 307.905 39.648C308.609 40.288 309.505 40.864 310.593 41.376C311.681 41.888 312.801 42.368 313.953 42.816C315.105 43.2 316.129 43.52 317.025 43.776C320.097 44.8 322.881 45.952 325.377 47.232C327.937 48.448 329.953 50.016 331.425 51.936C332.961 53.856 333.729 56.32 333.729 59.328C333.729 62.08 332.993 64.512 331.521 66.624C330.049 68.672 328.033 70.272 325.473 71.424C322.977 72.512 320.065 73.056 316.737 73.056C314.177 73.056 311.489 72.672 308.673 71.904C305.857 71.136 303.073 70.016 300.321 68.544C298.849 67.776 297.953 66.816 297.633 65.664C297.377 64.512 297.505 63.424 298.017 62.4C298.593 61.376 299.425 60.672 300.513 60.288C301.665 59.904 302.945 60.096 304.353 60.864C305.761 61.632 307.169 62.272 308.577 62.784C309.985 63.296 311.361 63.712 312.705 64.032C314.113 64.288 315.457 64.416 316.737 64.416C318.209 64.416 319.553 64.256 320.769 63.936C322.049 63.552 323.073 63.008 323.841 62.304C324.673 61.536 325.089 60.544 325.089 59.328C325.089 57.984 324.481 56.864 323.265 55.968C322.049 55.008 320.577 54.24 318.849 53.664C317.185 53.024 315.681 52.48 314.337 52.032C311.329 51.008 308.609 49.92 306.177 48.768C303.745 47.552 301.793 46.08 300.321 44.352C298.913 42.56 298.209 40.224 298.209 37.344C298.209 34.528 298.945 32.064 300.417 29.952C301.889 27.84 303.905 26.208 306.465 25.056C309.025 23.84 311.969 23.232 315.297 23.232C317.473 23.232 319.745 23.52 322.113 24.096C324.481 24.608 326.881 25.472 329.313 26.688C330.721 27.392 331.585 28.32 331.905 29.472C332.289 30.56 332.225 31.616 331.713 32.64C331.265 33.664 330.465 34.4 329.313 34.848C328.225 35.296 326.945 35.136 325.473 34.368Z" fill="#1C1C1C"/>
<path d="M68.6043 72.096C65.9163 71.136 63.5483 69.952 61.5003 68.544C59.5163 67.072 57.7563 65.184 56.2203 62.88C54.8763 60.896 53.8203 58.656 53.0523 56.16C52.2843 53.664 51.9003 50.976 51.9003 48.096C51.9003 43.296 52.9243 39.04 54.9723 35.328C57.0843 31.552 59.9323 28.608 63.5163 26.496C67.1643 24.32 71.2603 23.232 75.8043 23.232C80.4123 23.232 84.5083 24.32 88.0923 26.496C91.7403 28.608 94.5883 31.552 96.6362 35.328C98.7483 39.04 99.8043 43.296 99.8043 48.096C99.8043 50.912 99.4203 53.568 98.6523 56.064C97.9483 58.496 96.8923 60.736 95.4843 62.784C93.9483 65.152 92.1883 67.04 90.2043 68.448C88.2203 69.856 85.7883 71.072 82.9083 72.096C81.4363 72.608 80.1563 72.576 79.0683 72C78.0443 71.424 77.3403 70.592 76.9563 69.504C76.5723 68.416 76.6363 67.36 77.1483 66.336C77.6603 65.248 78.6843 64.416 80.2203 63.84C82.1403 63.2 83.7083 62.464 84.9243 61.632C86.1403 60.736 87.2923 59.52 88.3803 57.984C89.2763 56.64 89.9483 55.136 90.3963 53.472C90.9083 51.808 91.1643 50.016 91.1643 48.096C91.1643 44.96 90.4923 42.176 89.1483 39.744C87.8683 37.248 86.0763 35.328 83.7723 33.984C81.4683 32.576 78.8123 31.872 75.8043 31.872C72.7963 31.872 70.1403 32.576 67.8363 33.984C65.5323 35.328 63.7403 37.248 62.4603 39.744C61.1803 42.176 60.5403 44.96 60.5403 48.096C60.5403 50.016 60.7643 51.84 61.2123 53.568C61.7243 55.232 62.4283 56.736 63.3243 58.08C64.0283 59.104 64.7643 59.968 65.5323 60.672C66.3643 61.376 67.2603 61.984 68.2203 62.496C69.1803 63.008 70.2363 63.456 71.3883 63.84C72.9243 64.416 73.9483 65.248 74.4603 66.336C74.9723 67.36 75.0363 68.416 74.6523 69.504C74.2683 70.592 73.5323 71.424 72.4443 72C71.4203 72.576 70.1403 72.608 68.6043 72.096Z" fill="#EA6060"/>
<path d="M124.011 72.096C121.323 71.136 118.955 69.952 116.907 68.544C114.923 67.072 113.163 65.184 111.627 62.88C110.283 60.896 109.227 58.656 108.459 56.16C107.691 53.664 107.307 50.976 107.307 48.096C107.307 43.296 108.331 39.04 110.379 35.328C112.491 31.552 115.339 28.608 118.923 26.496C122.571 24.32 126.667 23.232 131.211 23.232C135.819 23.232 139.915 24.32 143.499 26.496C147.147 28.608 149.995 31.552 152.042 35.328C154.155 39.04 155.211 43.296 155.211 48.096C155.211 50.912 154.827 53.568 154.059 56.064C153.355 58.496 152.299 60.736 150.891 62.784C149.355 65.152 147.595 67.04 145.611 68.448C143.627 69.856 141.195 71.072 138.315 72.096C136.843 72.608 135.563 72.576 134.475 72C133.451 71.424 132.747 70.592 132.363 69.504C131.979 68.416 132.043 67.36 132.555 66.336C133.067 65.248 134.091 64.416 135.627 63.84C137.547 63.2 139.115 62.464 140.331 61.632C141.547 60.736 142.699 59.52 143.787 57.984C144.683 56.64 145.355 55.136 145.803 53.472C146.315 51.808 146.571 50.016 146.571 48.096C146.571 44.96 145.899 42.176 144.555 39.744C143.275 37.248 141.483 35.328 139.179 33.984C136.875 32.576 134.219 31.872 131.211 31.872C128.203 31.872 125.547 32.576 123.243 33.984C120.939 35.328 119.147 37.248 117.867 39.744C116.587 42.176 115.947 44.96 115.947 48.096C115.947 50.016 116.171 51.84 116.619 53.568C117.131 55.232 117.835 56.736 118.731 58.08C119.435 59.104 120.171 59.968 120.939 60.672C121.771 61.376 122.667 61.984 123.627 62.496C124.587 63.008 125.643 63.456 126.795 63.84C128.331 64.416 129.355 65.248 129.867 66.336C130.379 67.36 130.443 68.416 130.059 69.504C129.675 70.592 128.939 71.424 127.851 72C126.827 72.576 125.547 72.608 124.011 72.096Z" fill="#5A61FF"/>
</svg>
