<svg width="223" height="289" viewBox="0 0 223 289" fill="none" xmlns="http://www.w3.org/2000/svg">
<mask id="path-1-inside-1_188_5293" fill="white">
<path d="M130.504 70.5337C129.774 68.9403 129.028 67.3374 128.257 65.7409C128.049 65.2952 128.223 64.7537 128.672 64.5472C129.121 64.3406 129.667 64.5136 129.875 64.9594C130.662 66.5653 131.424 68.1776 132.144 69.7869C132.353 70.2326 132.153 70.7805 131.688 70.9776C131.411 71.1142 131.089 71.0736 130.849 70.9317C130.69 70.8371 130.575 70.7044 130.488 70.5242L130.504 70.5337ZM127.51 60.1826C126.703 58.6084 125.881 57.0246 125.033 55.4473C124.799 55.0079 124.254 54.8349 123.802 55.0826C123.359 55.3145 123.201 55.8654 123.434 56.3048C124.266 57.8727 125.098 59.4406 125.889 61.0054C125.969 61.1603 126.084 61.2929 126.227 61.3781C126.483 61.5295 126.814 61.5542 127.101 61.4017C127.543 61.1699 127.734 60.6379 127.5 60.1985L127.51 60.1826ZM142.202 100.746C142.41 100.869 142.665 100.913 142.929 100.833C143.407 100.687 143.687 100.186 143.539 99.712C143.016 98.0264 142.477 96.3314 141.923 94.6269C141.775 94.1525 141.252 93.9067 140.774 94.0532C140.296 94.1997 140.048 94.7191 140.196 95.1935C140.76 96.8822 141.283 98.5678 141.79 100.244C141.848 100.472 142.001 100.648 142.193 100.762L142.202 100.746ZM52.2547 236.801C51.4706 235.262 50.6897 233.681 49.9119 232.059C49.7038 231.614 49.1678 231.425 48.7028 231.622C48.2538 231.829 48.0636 232.361 48.2621 232.822C49.0464 234.469 49.8338 236.075 50.6178 237.615C50.6978 237.77 50.8223 237.886 50.9659 237.972C51.2213 238.123 51.5528 238.148 51.8394 237.995C52.2821 237.763 52.4563 237.222 52.2387 236.792L52.2547 236.801ZM122.442 50.7944C121.575 49.2487 120.682 47.7094 119.764 46.1765C119.505 45.7435 118.957 45.6117 118.53 45.853C118.094 46.1102 117.961 46.6547 118.204 47.0782C119.106 48.6017 119.999 50.141 120.859 51.6613C120.949 51.8004 121.057 51.9078 121.185 51.9835C121.456 52.1443 121.797 52.1532 122.084 52.0007C122.51 51.7594 122.669 51.2085 122.426 50.7849L122.442 50.7944ZM138.855 90.6585C139.078 90.7909 139.359 90.8284 139.617 90.7234C140.088 90.5516 140.326 90.0481 140.169 89.5895C139.57 87.9231 138.97 86.2566 138.329 84.5871C138.147 84.135 137.623 83.8892 137.168 84.0704C136.696 84.2422 136.465 84.7711 136.647 85.2233C137.272 86.8833 137.881 88.5339 138.481 90.2004C138.548 90.4122 138.695 90.5638 138.87 90.6679L138.855 90.6585ZM45.6848 222.353C45.5022 221.901 44.9694 221.671 44.5139 221.852C44.0584 222.034 43.8268 222.562 44.0094 223.015C44.6821 224.703 45.3835 226.344 46.072 227.934C46.1585 228.114 46.2894 228.257 46.433 228.342C46.6724 228.484 46.9785 228.515 47.2461 228.394C47.7111 228.197 47.9172 227.674 47.7187 227.213C47.0302 225.622 46.3448 223.991 45.6784 222.328L45.6848 222.353ZM134.687 80.2781C134.764 80.4741 134.895 80.6162 135.054 80.7108C135.294 80.8528 135.584 80.8744 135.858 80.7789C136.313 80.5977 136.545 80.0688 136.362 79.6166C135.702 77.9788 135.001 76.3378 134.3 74.6969C134.117 74.2448 133.575 74.0307 133.11 74.2277C132.645 74.4248 132.438 74.9473 132.637 75.409C133.348 77.034 134.033 78.6655 134.677 80.2939L134.687 80.2781ZM41.9579 212.428C41.7848 211.96 41.287 211.707 40.7996 211.87C40.3282 212.042 40.0741 212.536 40.2376 213.019C40.8339 214.727 41.4493 216.403 42.0518 218.028C42.1287 218.224 42.2661 218.392 42.4257 218.486C42.6491 218.619 42.9297 218.656 43.2037 218.561C43.6751 218.389 43.9067 217.86 43.7241 217.408C43.1216 215.783 42.5127 214.132 41.9164 212.424L41.9579 212.428ZM144.029 220.187C143.5 221.894 142.949 223.566 142.375 225.203C142.236 225.614 142.402 226.057 142.769 226.275C142.817 226.303 142.881 226.341 142.929 226.369C143.392 226.536 143.911 226.285 144.079 225.826C144.662 224.173 145.232 222.469 145.771 220.747C145.923 220.278 145.661 219.779 145.173 219.618C144.7 219.467 144.188 219.744 144.036 220.212L144.029 220.187ZM140.517 230.162C139.867 231.818 139.169 233.446 138.474 235.032C138.283 235.457 138.447 235.941 138.83 236.168C138.862 236.187 138.894 236.205 138.926 236.224C139.385 236.432 139.917 236.232 140.11 235.766C140.84 234.158 141.523 232.52 142.192 230.832C142.376 230.383 142.142 229.836 141.68 229.669C141.211 229.477 140.701 229.712 140.507 230.177L140.517 230.162ZM116.985 41.5841C116.048 40.0829 115.095 38.5722 114.117 37.0679C113.848 36.6507 113.29 36.5347 112.87 36.8014C112.45 37.068 112.333 37.622 112.601 38.0391C113.564 39.534 114.526 41.0289 115.447 42.5206C115.521 42.6502 115.639 42.7418 115.751 42.808C116.022 42.9689 116.389 42.9713 116.685 42.803C117.105 42.5364 117.238 41.9919 116.979 41.5589L116.985 41.5841ZM146.833 209.986C146.419 211.718 145.973 213.431 145.521 215.118C145.416 215.507 145.602 215.918 145.937 216.117C146.001 216.155 146.081 216.202 146.164 216.208C146.645 216.344 147.142 216.058 147.278 215.58C147.74 213.876 148.186 212.164 148.594 210.407C148.714 209.919 148.417 209.442 147.926 209.323C147.434 209.203 146.954 209.499 146.833 209.986ZM136.213 239.796C135.41 241.383 134.575 242.951 133.736 244.452C133.488 244.864 133.639 245.405 134.07 245.66L134.086 245.67C134.517 245.925 135.071 245.76 135.313 245.323C136.17 243.789 137.015 242.206 137.838 240.587C138.063 240.14 137.871 239.596 137.437 239.382C136.987 239.158 136.448 239.333 136.223 239.78L136.213 239.796ZM147.965 204.832C147.886 205.215 148.065 205.601 148.384 205.79C148.464 205.838 148.56 205.894 148.668 205.894C149.153 205.988 149.643 205.677 149.738 205.196C150.101 203.477 150.426 201.714 150.735 199.941C150.813 199.451 150.49 198.98 149.996 198.902C149.502 198.823 149.028 199.144 148.949 199.635C148.649 201.391 148.302 203.12 147.965 204.832ZM151.774 162.774C151.774 163.097 151.953 163.375 152.209 163.526C152.352 163.611 152.515 163.665 152.69 163.661C153.191 163.657 153.588 163.248 153.584 162.751C153.558 160.995 153.51 159.204 153.437 157.42C153.416 156.914 152.995 156.535 152.501 156.564C151.991 156.584 151.609 157.003 151.639 157.493C151.712 159.277 151.764 161.027 151.79 162.783L151.774 162.774ZM151.018 183.926C150.984 184.271 151.176 184.6 151.463 184.77C151.575 184.836 151.706 184.871 151.846 184.889C152.343 184.926 152.779 184.562 152.833 184.077C152.982 182.318 153.116 180.549 153.243 178.754C153.28 178.26 152.887 177.834 152.39 177.797C151.893 177.76 151.463 178.15 151.426 178.644C151.308 180.422 151.184 182.176 151.028 183.91L151.018 183.926ZM78.8019 268.855C77.3498 267.994 75.9165 266.994 74.499 265.895C74.1127 265.602 73.5327 265.666 73.237 266.05C72.9317 266.449 73.0061 267.009 73.3924 267.302C74.8738 268.439 76.3709 269.477 77.8869 270.376C78.3177 270.631 78.8785 270.491 79.1263 270.079C79.3837 269.651 79.2583 269.104 78.8274 268.849L78.8019 268.855ZM57.4435 246.025C56.5448 244.568 55.6429 243.044 54.7695 241.473C54.5264 241.05 53.9714 240.893 53.5447 241.134C53.118 241.375 52.9597 241.926 53.2028 242.35C54.0986 243.956 55.0165 245.488 55.9216 246.971C55.9951 247.1 56.1133 247.192 56.225 247.258C56.4963 247.419 56.8628 247.421 57.159 247.253C57.5792 246.987 57.712 246.442 57.453 246.009L57.4435 246.025ZM98.6581 273.493C96.9339 273.696 95.2126 273.75 93.4783 273.646C92.9809 273.609 92.5514 273.999 92.5141 274.493C92.4957 274.847 92.6811 275.15 92.9524 275.311C93.0801 275.387 93.2109 275.422 93.3512 275.44C95.1684 275.551 97.0395 275.5 98.8561 275.287C99.3437 275.232 99.703 274.779 99.6479 274.295C99.5768 273.802 99.1362 273.454 98.6486 273.509L98.6581 273.493ZM150.557 195.451C151.051 195.529 151.519 195.184 151.582 194.684C151.83 192.94 152.072 191.17 152.273 189.398C152.326 188.914 151.968 188.465 151.48 188.412C150.976 188.35 150.54 188.714 150.487 189.199C150.286 190.971 150.064 192.709 149.799 194.443C149.746 194.82 149.928 195.165 150.231 195.344C150.327 195.401 150.448 195.452 150.573 195.461L150.557 195.451ZM153.478 173.434C153.544 171.669 153.579 169.884 153.598 168.09C153.61 167.602 153.207 167.192 152.707 167.196C152.206 167.2 151.802 167.584 151.806 168.081C151.797 169.859 151.756 171.618 151.673 173.375C151.665 173.713 151.834 174.007 152.121 174.178C152.249 174.253 152.396 174.297 152.545 174.3C153.052 174.321 153.466 173.922 153.478 173.434ZM118.622 264.999C118.293 264.611 117.738 264.561 117.347 264.888C115.969 266.027 114.565 267.064 113.136 268C112.715 268.267 112.598 268.821 112.883 269.248C112.966 269.361 113.059 269.459 113.17 269.525C113.458 269.696 113.824 269.698 114.13 269.514C115.62 268.549 117.078 267.458 118.5 266.281C118.882 265.97 118.942 265.404 118.613 265.015L118.622 264.999ZM132.272 248.721C131.819 248.43 131.299 248.574 131.026 248.992C130.054 250.5 129.068 251.958 128.048 253.33C127.758 253.739 127.842 254.283 128.245 254.586C128.261 254.595 128.292 254.614 128.308 254.624C128.707 254.86 129.224 254.758 129.494 254.381C130.533 252.977 131.547 251.472 132.529 249.948C132.787 249.52 132.677 248.983 132.256 248.711L132.272 248.721ZM88.3859 272.861C86.7402 272.466 85.0815 271.912 83.4576 271.229C82.9886 271.037 82.4726 271.247 82.2631 271.703C82.0822 272.111 82.2458 272.595 82.6287 272.822C82.6607 272.841 82.6925 272.86 82.7404 272.888C84.4536 273.603 86.2177 274.198 87.9527 274.625C88.4438 274.744 88.9246 274.449 89.0448 273.961C89.1649 273.474 88.8675 272.997 88.3763 272.877L88.3859 272.861ZM126.076 257.362C125.699 257.053 125.113 257.092 124.801 257.466C123.656 258.829 122.441 260.128 121.242 261.33C120.882 261.676 120.89 262.239 121.238 262.596C121.302 262.633 121.356 262.687 121.42 262.725C121.771 262.933 122.233 262.885 122.522 262.584C123.766 261.344 124.985 260.003 126.174 258.602C126.495 258.212 126.446 257.646 126.07 257.337L126.076 257.362ZM109.82 270.956C109.612 270.51 109.06 270.312 108.617 270.544C107.034 271.303 105.394 271.942 103.782 272.426C103.304 272.573 103.024 273.073 103.172 273.548C103.239 273.76 103.383 273.952 103.575 274.066C103.782 274.189 104.037 274.233 104.302 274.153C106.016 273.644 107.742 272.969 109.411 272.175C109.86 271.968 110.06 271.421 109.826 270.981L109.82 270.956ZM148.872 120.39C148.511 118.65 148.125 116.917 147.724 115.174C147.601 114.694 147.132 114.394 146.632 114.506C146.148 114.627 145.846 115.093 145.958 115.589C146.37 117.316 146.74 119.04 147.094 120.754C147.158 121.007 147.308 121.225 147.516 121.348C147.707 121.462 147.937 121.512 148.166 121.455C148.657 121.359 148.968 120.877 148.872 120.39ZM63.5014 254.668C62.4531 253.315 61.4015 251.896 60.3786 250.43C60.1004 250.029 59.5328 249.929 59.1125 250.195C58.7082 250.471 58.6073 251.035 58.8855 251.436C59.9308 252.937 61.0048 254.391 62.0754 255.778C62.1521 255.866 62.2383 255.939 62.3341 255.996C62.6372 256.175 63.0548 256.165 63.3476 255.93C63.7455 255.629 63.805 255.062 63.5014 254.668ZM145.114 110.983C145.305 111.097 145.561 111.141 145.79 111.083C146.274 110.962 146.57 110.471 146.448 109.99C146.011 108.27 145.548 106.556 145.07 104.832C144.948 104.351 144.444 104.074 143.95 104.211C143.466 104.332 143.186 104.833 143.324 105.323C143.812 107.031 144.258 108.735 144.705 110.44C144.763 110.668 144.923 110.87 145.114 110.983ZM152.791 146.764C152.745 146.264 152.314 145.901 151.81 145.946C151.307 145.991 150.941 146.419 150.987 146.919C151.137 148.684 151.287 150.45 151.389 152.187C151.399 152.494 151.588 152.756 151.827 152.898C151.987 152.993 152.159 153.03 152.36 153.02C152.854 152.991 153.245 152.557 153.2 152.057C153.091 150.294 152.95 148.513 152.784 146.738L152.791 146.764ZM150.892 142.328C151.051 142.422 151.255 142.479 151.45 142.444C151.937 142.389 152.313 141.945 152.241 141.452C152.04 139.699 151.823 137.937 151.574 136.156C151.503 135.662 151.053 135.331 150.566 135.386C150.068 135.456 149.735 135.903 149.79 136.387C150.032 138.143 150.249 139.905 150.444 141.632C150.48 141.933 150.646 142.16 150.885 142.302L150.892 142.328ZM70.5554 262.482C69.3258 261.323 68.096 260.057 66.8884 258.718C66.5498 258.345 65.9854 258.311 65.6099 258.647C65.2344 258.983 65.2005 259.544 65.5391 259.916C66.7691 261.29 68.0468 262.585 69.3147 263.788C69.3786 263.826 69.4169 263.871 69.4807 263.908C69.8318 264.117 70.2939 264.068 70.5929 263.751C70.9365 263.396 70.9131 262.823 70.5554 262.482ZM149.902 125.622C149.806 125.135 149.33 124.81 148.839 124.906C148.349 125.002 148.031 125.458 148.118 125.961C148.437 127.697 148.746 129.45 149.024 131.183C149.069 131.468 149.229 131.67 149.452 131.803C149.628 131.907 149.841 131.948 150.052 131.922C150.549 131.851 150.876 131.379 150.805 130.886C150.537 129.136 150.228 127.384 149.902 125.622Z"/>
</mask>
<path d="M130.504 70.5337C129.774 68.9403 129.028 67.3374 128.257 65.7409C128.049 65.2952 128.223 64.7537 128.672 64.5472C129.121 64.3406 129.667 64.5136 129.875 64.9594C130.662 66.5653 131.424 68.1776 132.144 69.7869C132.353 70.2326 132.153 70.7805 131.688 70.9776C131.411 71.1142 131.089 71.0736 130.849 70.9317C130.69 70.8371 130.575 70.7044 130.488 70.5242L130.504 70.5337ZM127.51 60.1826C126.703 58.6084 125.881 57.0246 125.033 55.4473C124.799 55.0079 124.254 54.8349 123.802 55.0826C123.359 55.3145 123.201 55.8654 123.434 56.3048C124.266 57.8727 125.098 59.4406 125.889 61.0054C125.969 61.1603 126.084 61.2929 126.227 61.3781C126.483 61.5295 126.814 61.5542 127.101 61.4017C127.543 61.1699 127.734 60.6379 127.5 60.1985L127.51 60.1826ZM142.202 100.746C142.41 100.869 142.665 100.913 142.929 100.833C143.407 100.687 143.687 100.186 143.539 99.712C143.016 98.0264 142.477 96.3314 141.923 94.6269C141.775 94.1525 141.252 93.9067 140.774 94.0532C140.296 94.1997 140.048 94.7191 140.196 95.1935C140.76 96.8822 141.283 98.5678 141.79 100.244C141.848 100.472 142.001 100.648 142.193 100.762L142.202 100.746ZM52.2547 236.801C51.4706 235.262 50.6897 233.681 49.9119 232.059C49.7038 231.614 49.1678 231.425 48.7028 231.622C48.2538 231.829 48.0636 232.361 48.2621 232.822C49.0464 234.469 49.8338 236.075 50.6178 237.615C50.6978 237.77 50.8223 237.886 50.9659 237.972C51.2213 238.123 51.5528 238.148 51.8394 237.995C52.2821 237.763 52.4563 237.222 52.2387 236.792L52.2547 236.801ZM122.442 50.7944C121.575 49.2487 120.682 47.7094 119.764 46.1765C119.505 45.7435 118.957 45.6117 118.53 45.853C118.094 46.1102 117.961 46.6547 118.204 47.0782C119.106 48.6017 119.999 50.141 120.859 51.6613C120.949 51.8004 121.057 51.9078 121.185 51.9835C121.456 52.1443 121.797 52.1532 122.084 52.0007C122.51 51.7594 122.669 51.2085 122.426 50.7849L122.442 50.7944ZM138.855 90.6585C139.078 90.7909 139.359 90.8284 139.617 90.7234C140.088 90.5516 140.326 90.0481 140.169 89.5895C139.57 87.9231 138.97 86.2566 138.329 84.5871C138.147 84.135 137.623 83.8892 137.168 84.0704C136.696 84.2422 136.465 84.7711 136.647 85.2233C137.272 86.8833 137.881 88.5339 138.481 90.2004C138.548 90.4122 138.695 90.5638 138.87 90.6679L138.855 90.6585ZM45.6848 222.353C45.5022 221.901 44.9694 221.671 44.5139 221.852C44.0584 222.034 43.8268 222.562 44.0094 223.015C44.6821 224.703 45.3835 226.344 46.072 227.934C46.1585 228.114 46.2894 228.257 46.433 228.342C46.6724 228.484 46.9785 228.515 47.2461 228.394C47.7111 228.197 47.9172 227.674 47.7187 227.213C47.0302 225.622 46.3448 223.991 45.6784 222.328L45.6848 222.353ZM134.687 80.2781C134.764 80.4741 134.895 80.6162 135.054 80.7108C135.294 80.8528 135.584 80.8744 135.858 80.7789C136.313 80.5977 136.545 80.0688 136.362 79.6166C135.702 77.9788 135.001 76.3378 134.3 74.6969C134.117 74.2448 133.575 74.0307 133.11 74.2277C132.645 74.4248 132.438 74.9473 132.637 75.409C133.348 77.034 134.033 78.6655 134.677 80.2939L134.687 80.2781ZM41.9579 212.428C41.7848 211.96 41.287 211.707 40.7996 211.87C40.3282 212.042 40.0741 212.536 40.2376 213.019C40.8339 214.727 41.4493 216.403 42.0518 218.028C42.1287 218.224 42.2661 218.392 42.4257 218.486C42.6491 218.619 42.9297 218.656 43.2037 218.561C43.6751 218.389 43.9067 217.86 43.7241 217.408C43.1216 215.783 42.5127 214.132 41.9164 212.424L41.9579 212.428ZM144.029 220.187C143.5 221.894 142.949 223.566 142.375 225.203C142.236 225.614 142.402 226.057 142.769 226.275C142.817 226.303 142.881 226.341 142.929 226.369C143.392 226.536 143.911 226.285 144.079 225.826C144.662 224.173 145.232 222.469 145.771 220.747C145.923 220.278 145.661 219.779 145.173 219.618C144.7 219.467 144.188 219.744 144.036 220.212L144.029 220.187ZM140.517 230.162C139.867 231.818 139.169 233.446 138.474 235.032C138.283 235.457 138.447 235.941 138.83 236.168C138.862 236.187 138.894 236.205 138.926 236.224C139.385 236.432 139.917 236.232 140.11 235.766C140.84 234.158 141.523 232.52 142.192 230.832C142.376 230.383 142.142 229.836 141.68 229.669C141.211 229.477 140.701 229.712 140.507 230.177L140.517 230.162ZM116.985 41.5841C116.048 40.0829 115.095 38.5722 114.117 37.0679C113.848 36.6507 113.29 36.5347 112.87 36.8014C112.45 37.068 112.333 37.622 112.601 38.0391C113.564 39.534 114.526 41.0289 115.447 42.5206C115.521 42.6502 115.639 42.7418 115.751 42.808C116.022 42.9689 116.389 42.9713 116.685 42.803C117.105 42.5364 117.238 41.9919 116.979 41.5589L116.985 41.5841ZM146.833 209.986C146.419 211.718 145.973 213.431 145.521 215.118C145.416 215.507 145.602 215.918 145.937 216.117C146.001 216.155 146.081 216.202 146.164 216.208C146.645 216.344 147.142 216.058 147.278 215.58C147.74 213.876 148.186 212.164 148.594 210.407C148.714 209.919 148.417 209.442 147.926 209.323C147.434 209.203 146.954 209.499 146.833 209.986ZM136.213 239.796C135.41 241.383 134.575 242.951 133.736 244.452C133.488 244.864 133.639 245.405 134.07 245.66L134.086 245.67C134.517 245.925 135.071 245.76 135.313 245.323C136.17 243.789 137.015 242.206 137.838 240.587C138.063 240.14 137.871 239.596 137.437 239.382C136.987 239.158 136.448 239.333 136.223 239.78L136.213 239.796ZM147.965 204.832C147.886 205.215 148.065 205.601 148.384 205.79C148.464 205.838 148.56 205.894 148.668 205.894C149.153 205.988 149.643 205.677 149.738 205.196C150.101 203.477 150.426 201.714 150.735 199.941C150.813 199.451 150.49 198.98 149.996 198.902C149.502 198.823 149.028 199.144 148.949 199.635C148.649 201.391 148.302 203.12 147.965 204.832ZM151.774 162.774C151.774 163.097 151.953 163.375 152.209 163.526C152.352 163.611 152.515 163.665 152.69 163.661C153.191 163.657 153.588 163.248 153.584 162.751C153.558 160.995 153.51 159.204 153.437 157.42C153.416 156.914 152.995 156.535 152.501 156.564C151.991 156.584 151.609 157.003 151.639 157.493C151.712 159.277 151.764 161.027 151.79 162.783L151.774 162.774ZM151.018 183.926C150.984 184.271 151.176 184.6 151.463 184.77C151.575 184.836 151.706 184.871 151.846 184.889C152.343 184.926 152.779 184.562 152.833 184.077C152.982 182.318 153.116 180.549 153.243 178.754C153.28 178.26 152.887 177.834 152.39 177.797C151.893 177.76 151.463 178.15 151.426 178.644C151.308 180.422 151.184 182.176 151.028 183.91L151.018 183.926ZM78.8019 268.855C77.3498 267.994 75.9165 266.994 74.499 265.895C74.1127 265.602 73.5327 265.666 73.237 266.05C72.9317 266.449 73.0061 267.009 73.3924 267.302C74.8738 268.439 76.3709 269.477 77.8869 270.376C78.3177 270.631 78.8785 270.491 79.1263 270.079C79.3837 269.651 79.2583 269.104 78.8274 268.849L78.8019 268.855ZM57.4435 246.025C56.5448 244.568 55.6429 243.044 54.7695 241.473C54.5264 241.05 53.9714 240.893 53.5447 241.134C53.118 241.375 52.9597 241.926 53.2028 242.35C54.0986 243.956 55.0165 245.488 55.9216 246.971C55.9951 247.1 56.1133 247.192 56.225 247.258C56.4963 247.419 56.8628 247.421 57.159 247.253C57.5792 246.987 57.712 246.442 57.453 246.009L57.4435 246.025ZM98.6581 273.493C96.9339 273.696 95.2126 273.75 93.4783 273.646C92.9809 273.609 92.5514 273.999 92.5141 274.493C92.4957 274.847 92.6811 275.15 92.9524 275.311C93.0801 275.387 93.2109 275.422 93.3512 275.44C95.1684 275.551 97.0395 275.5 98.8561 275.287C99.3437 275.232 99.703 274.779 99.6479 274.295C99.5768 273.802 99.1362 273.454 98.6486 273.509L98.6581 273.493ZM150.557 195.451C151.051 195.529 151.519 195.184 151.582 194.684C151.83 192.94 152.072 191.17 152.273 189.398C152.326 188.914 151.968 188.465 151.48 188.412C150.976 188.35 150.54 188.714 150.487 189.199C150.286 190.971 150.064 192.709 149.799 194.443C149.746 194.82 149.928 195.165 150.231 195.344C150.327 195.401 150.448 195.452 150.573 195.461L150.557 195.451ZM153.478 173.434C153.544 171.669 153.579 169.884 153.598 168.09C153.61 167.602 153.207 167.192 152.707 167.196C152.206 167.2 151.802 167.584 151.806 168.081C151.797 169.859 151.756 171.618 151.673 173.375C151.665 173.713 151.834 174.007 152.121 174.178C152.249 174.253 152.396 174.297 152.545 174.3C153.052 174.321 153.466 173.922 153.478 173.434ZM118.622 264.999C118.293 264.611 117.738 264.561 117.347 264.888C115.969 266.027 114.565 267.064 113.136 268C112.715 268.267 112.598 268.821 112.883 269.248C112.966 269.361 113.059 269.459 113.17 269.525C113.458 269.696 113.824 269.698 114.13 269.514C115.62 268.549 117.078 267.458 118.5 266.281C118.882 265.97 118.942 265.404 118.613 265.015L118.622 264.999ZM132.272 248.721C131.819 248.43 131.299 248.574 131.026 248.992C130.054 250.5 129.068 251.958 128.048 253.33C127.758 253.739 127.842 254.283 128.245 254.586C128.261 254.595 128.292 254.614 128.308 254.624C128.707 254.86 129.224 254.758 129.494 254.381C130.533 252.977 131.547 251.472 132.529 249.948C132.787 249.52 132.677 248.983 132.256 248.711L132.272 248.721ZM88.3859 272.861C86.7402 272.466 85.0815 271.912 83.4576 271.229C82.9886 271.037 82.4726 271.247 82.2631 271.703C82.0822 272.111 82.2458 272.595 82.6287 272.822C82.6607 272.841 82.6925 272.86 82.7404 272.888C84.4536 273.603 86.2177 274.198 87.9527 274.625C88.4438 274.744 88.9246 274.449 89.0448 273.961C89.1649 273.474 88.8675 272.997 88.3763 272.877L88.3859 272.861ZM126.076 257.362C125.699 257.053 125.113 257.092 124.801 257.466C123.656 258.829 122.441 260.128 121.242 261.33C120.882 261.676 120.89 262.239 121.238 262.596C121.302 262.633 121.356 262.687 121.42 262.725C121.771 262.933 122.233 262.885 122.522 262.584C123.766 261.344 124.985 260.003 126.174 258.602C126.495 258.212 126.446 257.646 126.07 257.337L126.076 257.362ZM109.82 270.956C109.612 270.51 109.06 270.312 108.617 270.544C107.034 271.303 105.394 271.942 103.782 272.426C103.304 272.573 103.024 273.073 103.172 273.548C103.239 273.76 103.383 273.952 103.575 274.066C103.782 274.189 104.037 274.233 104.302 274.153C106.016 273.644 107.742 272.969 109.411 272.175C109.86 271.968 110.06 271.421 109.826 270.981L109.82 270.956ZM148.872 120.39C148.511 118.65 148.125 116.917 147.724 115.174C147.601 114.694 147.132 114.394 146.632 114.506C146.148 114.627 145.846 115.093 145.958 115.589C146.37 117.316 146.74 119.04 147.094 120.754C147.158 121.007 147.308 121.225 147.516 121.348C147.707 121.462 147.937 121.512 148.166 121.455C148.657 121.359 148.968 120.877 148.872 120.39ZM63.5014 254.668C62.4531 253.315 61.4015 251.896 60.3786 250.43C60.1004 250.029 59.5328 249.929 59.1125 250.195C58.7082 250.471 58.6073 251.035 58.8855 251.436C59.9308 252.937 61.0048 254.391 62.0754 255.778C62.1521 255.866 62.2383 255.939 62.3341 255.996C62.6372 256.175 63.0548 256.165 63.3476 255.93C63.7455 255.629 63.805 255.062 63.5014 254.668ZM145.114 110.983C145.305 111.097 145.561 111.141 145.79 111.083C146.274 110.962 146.57 110.471 146.448 109.99C146.011 108.27 145.548 106.556 145.07 104.832C144.948 104.351 144.444 104.074 143.95 104.211C143.466 104.332 143.186 104.833 143.324 105.323C143.812 107.031 144.258 108.735 144.705 110.44C144.763 110.668 144.923 110.87 145.114 110.983ZM152.791 146.764C152.745 146.264 152.314 145.901 151.81 145.946C151.307 145.991 150.941 146.419 150.987 146.919C151.137 148.684 151.287 150.45 151.389 152.187C151.399 152.494 151.588 152.756 151.827 152.898C151.987 152.993 152.159 153.03 152.36 153.02C152.854 152.991 153.245 152.557 153.2 152.057C153.091 150.294 152.95 148.513 152.784 146.738L152.791 146.764ZM150.892 142.328C151.051 142.422 151.255 142.479 151.45 142.444C151.937 142.389 152.313 141.945 152.241 141.452C152.04 139.699 151.823 137.937 151.574 136.156C151.503 135.662 151.053 135.331 150.566 135.386C150.068 135.456 149.735 135.903 149.79 136.387C150.032 138.143 150.249 139.905 150.444 141.632C150.48 141.933 150.646 142.16 150.885 142.302L150.892 142.328ZM70.5554 262.482C69.3258 261.323 68.096 260.057 66.8884 258.718C66.5498 258.345 65.9854 258.311 65.6099 258.647C65.2344 258.983 65.2005 259.544 65.5391 259.916C66.7691 261.29 68.0468 262.585 69.3147 263.788C69.3786 263.826 69.4169 263.871 69.4807 263.908C69.8318 264.117 70.2939 264.068 70.5929 263.751C70.9365 263.396 70.9131 262.823 70.5554 262.482ZM149.902 125.622C149.806 125.135 149.33 124.81 148.839 124.906C148.349 125.002 148.031 125.458 148.118 125.961C148.437 127.697 148.746 129.45 149.024 131.183C149.069 131.468 149.229 131.67 149.452 131.803C149.628 131.907 149.841 131.948 150.052 131.922C150.549 131.851 150.876 131.379 150.805 130.886C150.537 129.136 150.228 127.384 149.902 125.622Z" stroke="#EA6060" stroke-width="3.71753" mask="url(#path-1-inside-1_188_5293)"/>
<path d="M101.883 1.92745C103.886 6.3766 105 11.3068 105 16.4953C105 21.6838 103.886 26.614 101.883 31.0631M101.883 1.92745C102.888 1.71645 103.931 1.60547 105 1.60547C109.331 1.60547 113.234 3.42765 115.972 6.34185M101.883 1.92745C98.6738 2.60072 95.8433 4.29232 93.7506 6.64562M90.0521 15.2449C90.0176 15.6572 90 16.0742 90 16.4953C90 20.2719 91.4164 23.72 93.7506 26.3449M90.0521 15.2449C94.605 13.1794 99.6671 12.0283 105 12.0283C110.333 12.0283 115.395 13.1794 119.948 15.2449M90.0521 15.2449C90.3273 11.96 91.6767 8.97785 93.7506 6.64562M93.7506 6.64562C96.9194 8.78977 99 12.4013 99 16.4953C99 20.5892 96.9194 24.2008 93.7506 26.3449M93.7506 26.3449C95.8433 28.6983 98.6738 30.3898 101.883 31.0631M101.883 31.0631C102.888 31.2741 103.931 31.3851 105 31.3851C109.331 31.3851 113.234 29.5629 115.972 26.6487M115.972 26.6487C112.539 24.5527 110.25 20.7893 110.25 16.4953C110.25 12.2012 112.539 8.43787 115.972 6.34185M115.972 26.6487C118.471 23.9889 120 20.4194 120 16.4953C120 16.0742 119.982 15.6572 119.948 15.2449M119.948 15.2449C119.661 11.8156 118.203 8.71624 115.972 6.34185" stroke="#EA6060" stroke-width="1.5"/>
</svg>
