<svg width="104" height="33" viewBox="0 0 104 33" fill="none" xmlns="http://www.w3.org/2000/svg">
<path d="M104 10.2635C104 10.8686 104 11.4271 104 11.9391C104 12.4511 104 12.998 104 13.5798C104 14.1384 104 14.79 104 15.5347C104 16.2561 104 17.1172 104 18.118C104 19.4445 103.791 20.6197 103.372 21.6437C102.953 22.6677 102.36 23.5404 101.592 24.2619C100.847 24.9601 99.9626 25.4953 98.9386 25.8677C97.9378 26.24 96.844 26.4262 95.6571 26.4262C94.4703 26.4262 93.3648 26.2051 92.3408 25.763C91.3168 25.3208 90.4208 24.6924 89.6528 23.8779C88.8848 23.0634 88.2914 22.1092 87.8725 21.0154C87.4536 19.8983 87.2441 18.6765 87.2441 17.35C87.2441 15.5812 87.6049 14.022 88.3263 12.6722C89.071 11.2991 90.0717 10.2286 91.3285 9.46058C92.6084 8.69259 94.0397 8.30859 95.6222 8.30859C96.8091 8.30859 97.9029 8.52968 98.9037 8.97186C99.9277 9.39077 100.812 10.0075 101.557 10.822C102.325 11.6133 102.918 12.5558 103.337 13.6496C103.779 14.7434 104 15.9536 104 17.2801C104 17.8154 104 18.339 104 18.851C104 19.3398 104 19.8168 104 20.2823C104 20.7245 104 21.1434 104 21.539C104 22.1674 104 22.7492 104 23.2844C104 23.8197 104 24.4015 104 25.0299C104 25.6117 103.837 26.0539 103.512 26.3564C103.209 26.659 102.848 26.8102 102.429 26.8102C102.011 26.8102 101.638 26.659 101.312 26.3564C101.01 26.0539 100.859 25.6117 100.859 25.0299C100.859 24.6575 100.859 24.2735 100.859 23.8779C100.859 23.4823 100.859 23.0983 100.859 22.7259C100.859 22.3303 100.859 21.9346 100.859 21.539C100.859 21.283 100.859 20.8874 100.859 20.3521C100.859 19.7936 100.859 19.235 100.859 18.6765C100.859 18.0947 100.859 17.6292 100.859 17.2801C100.859 16.1398 100.637 15.1274 100.195 14.2431C99.7531 13.3587 99.1364 12.6722 98.3451 12.1835C97.5539 11.6947 96.6462 11.4504 95.6222 11.4504C94.8542 11.4504 94.1444 11.6017 93.4928 11.9042C92.8412 12.1835 92.2826 12.5907 91.8172 13.126C91.375 13.638 91.0259 14.2547 90.7699 14.9762C90.5139 15.6976 90.3859 16.4889 90.3859 17.35C90.3859 18.211 90.5139 19.0023 90.7699 19.7238C91.0259 20.4452 91.3866 21.0736 91.8521 21.6088C92.3175 22.1441 92.8761 22.563 93.5277 22.8655C94.1793 23.1448 94.8892 23.2844 95.6571 23.2844C96.4251 23.2844 97.1233 23.1797 97.7517 22.9703C98.4033 22.7608 98.9618 22.4466 99.4273 22.0277C99.8927 21.5856 100.242 21.0386 100.475 20.387C100.731 19.7354 100.859 18.979 100.859 18.118C100.859 17.443 100.859 16.7332 100.859 15.9885C100.859 15.2438 100.859 14.5107 100.859 13.7893C100.859 13.0678 100.859 12.4046 100.859 11.7995C100.859 11.1711 100.859 10.6591 100.859 10.2635C100.859 9.68167 101.01 9.23949 101.312 8.93695C101.638 8.63441 102.011 8.48314 102.429 8.48314C102.848 8.48314 103.209 8.63441 103.512 8.93695C103.837 9.23949 104 9.68167 104 10.2635Z" fill="white"/>
<path d="M80.2461 24.6456C80.2461 24.1568 80.2461 23.6332 80.2461 23.0747C80.2461 22.5161 80.2461 21.9576 80.2461 21.3991C80.2461 20.8405 80.2461 20.3169 80.2461 19.8282C80.2461 17.9664 80.2461 15.93 80.2461 13.7191C80.2461 11.5082 80.2461 9.01809 80.2461 6.24866C80.2461 5.62031 80.2461 4.88722 80.2461 4.04941C80.2461 3.21161 80.2461 2.45525 80.2461 1.78035C80.2461 1.19853 80.3974 0.756357 80.6999 0.453814C81.0257 0.151271 81.3981 0 81.817 0C82.2359 0 82.5966 0.151271 82.8992 0.453814C83.225 0.756357 83.3879 1.19853 83.3879 1.78035C83.3879 2.33889 83.3879 2.86252 83.3879 3.35124C83.3879 3.81669 83.3879 4.29377 83.3879 4.7825C83.3879 5.24795 83.3879 5.73667 83.3879 6.24866C83.3879 7.48211 83.3879 8.797 83.3879 10.1934C83.3879 11.5897 83.3879 13.0908 83.3879 14.6966C83.3879 16.2791 83.3879 17.9896 83.3879 19.8282C83.3879 20.41 83.3879 20.9569 83.3879 21.4689C83.3879 21.9809 83.3879 22.4929 83.3879 23.0049C83.3879 23.5169 83.3879 24.0638 83.3879 24.6456C83.3879 25.2274 83.225 25.6696 82.8992 25.9721C82.5966 26.2746 82.2359 26.4259 81.817 26.4259C81.3981 26.4259 81.0257 26.2746 80.6999 25.9721C80.3974 25.6696 80.2461 25.2274 80.2461 24.6456Z" fill="white"/>
<path d="M59.7227 30.4058C59.7227 29.9404 59.7227 29.4284 59.7227 28.8698C59.7227 28.3113 59.7227 27.7179 59.7227 27.0895C59.7227 26.4844 59.7227 25.8677 59.7227 25.2393C59.7227 24.6342 59.7227 23.9361 59.7227 23.1448C59.7227 22.3535 59.7227 21.4692 59.7227 20.4917C59.7227 19.491 59.7227 18.4321 59.7227 17.315C59.7227 15.5463 60.0834 13.9871 60.8048 12.6373C61.5263 11.2875 62.5154 10.2286 63.7721 9.46058C65.0288 8.69259 66.46 8.30859 68.0658 8.30859C69.6484 8.30859 71.068 8.70423 72.3247 9.49549C73.6047 10.2635 74.6171 11.334 75.3618 12.7071C76.1065 14.0569 76.4789 15.6162 76.4789 17.3849C76.4789 18.7114 76.2578 19.9332 75.8156 21.0503C75.3967 22.1441 74.8032 23.0983 74.0352 23.9128C73.2672 24.7041 72.3713 25.3208 71.3473 25.763C70.3466 26.2051 69.2644 26.4262 68.1008 26.4262C66.9139 26.4262 65.8084 26.2051 64.7844 25.763C63.7604 25.2975 62.8644 24.6692 62.0965 23.8779C61.3517 23.0634 60.7699 22.1092 60.351 21.0154C59.9321 19.9216 59.7227 18.7347 59.7227 17.4547C59.7227 16.6867 59.7227 15.8605 59.7227 14.9762C59.7227 14.0685 59.7227 13.2075 59.7227 12.3929C59.7227 11.5551 59.7227 10.8569 59.7227 10.2984C59.7227 9.69331 59.8739 9.25113 60.1765 8.97186C60.5023 8.66932 60.8746 8.51805 61.2936 8.51805C61.7125 8.51805 62.0732 8.66932 62.3757 8.97186C62.7015 9.2744 62.8644 9.71658 62.8644 10.2984C62.8644 11.1362 62.8644 11.8809 62.8644 12.5326C62.8644 13.1842 62.8644 13.8824 62.8644 14.6271C62.8644 15.3718 62.8644 16.3143 62.8644 17.4547C62.8644 18.2925 62.9924 19.0605 63.2484 19.7587C63.5044 20.4568 63.8652 21.0736 64.3306 21.6088C64.7961 22.1441 65.343 22.563 65.9713 22.8655C66.623 23.1448 67.3328 23.2844 68.1008 23.2844C68.8455 23.2844 69.532 23.1448 70.1604 22.8655C70.812 22.563 71.3705 22.1557 71.836 21.6437C72.3014 21.1085 72.6622 20.4801 72.9182 19.7587C73.1974 19.0372 73.3371 18.2459 73.3371 17.3849C73.3371 16.5238 73.2091 15.7325 72.9531 15.0111C72.6971 14.2896 72.3363 13.6613 71.8709 13.126C71.4055 12.5907 70.8469 12.1835 70.1953 11.9042C69.5437 11.6017 68.8338 11.4504 68.0658 11.4504C67.0186 11.4504 66.0993 11.7064 65.3081 12.2184C64.5401 12.7071 63.935 13.3936 63.4928 14.278C63.0739 15.1623 62.8644 16.1747 62.8644 17.315C62.8644 18.083 62.8644 18.8976 62.8644 19.7587C62.8644 20.5965 62.8644 21.4692 62.8644 22.3768C62.8644 23.2612 62.8644 24.1572 62.8644 25.0648C62.8644 25.8561 62.8644 26.5426 62.8644 27.1244C62.8644 27.7062 62.8644 28.2531 62.8644 28.7651C62.8644 29.2771 62.8644 29.824 62.8644 30.4058C62.8644 30.9876 62.7015 31.4298 62.3757 31.7324C62.0732 32.0349 61.7125 32.1862 61.2936 32.1862C60.8746 32.1862 60.5023 32.0349 60.1765 31.7324C59.8739 31.4298 59.7227 30.9876 59.7227 30.4058Z" fill="white"/>
<path d="M40.6495 23.5813C39.9776 22.7903 39.4471 21.9869 39.0582 21.1711C38.701 20.3468 38.49 19.4323 38.4252 18.4275C38.3627 17.5583 38.4374 16.6609 38.6494 15.7352C38.8613 14.8096 39.2291 13.8933 39.7528 12.9863C40.6255 11.4747 41.7218 10.3206 43.0416 9.524C44.3932 8.71888 45.8254 8.30958 47.338 8.29611C48.8825 8.27412 50.3702 8.67621 51.8012 9.50239C53.2523 10.3402 54.3444 11.4275 55.0774 12.7644C55.8422 14.0928 56.2038 15.5377 56.1622 17.0992C56.1524 18.6522 55.7112 20.1844 54.8385 21.696C54.3265 22.5828 53.7226 23.3494 53.027 23.9958C52.3631 24.6337 51.6233 25.1471 50.8075 25.5361C49.8932 26.0025 48.9957 26.2771 48.1149 26.3597C47.2341 26.4424 46.2472 26.3832 45.154 26.182C44.5974 26.0756 44.2001 25.8328 43.9622 25.4536C43.7445 25.086 43.6741 24.696 43.7509 24.2836C43.8278 23.8711 44.04 23.5502 44.3874 23.3209C44.7465 23.0713 45.2202 22.9955 45.8086 23.0934C46.5296 23.2409 47.1572 23.2942 47.6914 23.2533C48.2373 23.1922 48.8212 23.0187 49.4431 22.7328C49.9696 22.4725 50.4547 22.1211 50.8983 21.6785C51.3621 21.2476 51.7685 20.7298 52.1176 20.1251C52.6878 19.1376 52.9823 18.1387 53.0012 17.1284C53.052 16.1097 52.8367 15.1792 52.3555 14.3371C51.886 13.4748 51.1775 12.7702 50.2303 12.2233C49.283 11.6763 48.3186 11.4151 47.337 11.4396C46.3671 11.444 45.4537 11.7228 44.5968 12.2761C43.7515 12.8093 43.0438 13.5696 42.4736 14.5572C42.1245 15.1618 41.8634 15.777 41.6903 16.4026C41.549 17.0197 41.4973 17.6213 41.5351 18.2075C41.5706 18.658 41.6453 19.0639 41.7592 19.4252C41.8932 19.7982 42.0648 20.1525 42.274 20.4883C42.4832 20.8241 42.7343 21.1572 43.0273 21.4876C43.4063 21.9482 43.5775 22.3964 43.5409 22.8321C43.516 23.2477 43.3441 23.5919 43.0254 23.8647C42.7066 24.1375 42.3236 24.2657 41.8762 24.2493C41.449 24.2445 41.0401 24.0218 40.6495 23.5813Z" fill="#5A61FF"/>
<path d="M18.376 14.6249C18.7251 13.6475 19.1556 12.7864 19.6676 12.0417C20.2029 11.3202 20.8894 10.6802 21.7272 10.1217C22.4487 9.63295 23.2632 9.24896 24.1708 8.96969C25.0785 8.69042 26.0559 8.55078 27.1032 8.55078C28.8486 8.55078 30.3962 8.92314 31.746 9.66786C33.1191 10.4359 34.1896 11.4715 34.9576 12.7747C35.7489 14.1013 36.1445 15.5907 36.1445 17.2431C36.1445 18.9187 35.7489 20.4081 34.9576 21.7114C34.1896 23.0379 33.1191 24.0735 31.746 24.8183C30.3962 25.5862 28.8486 25.9702 27.1032 25.9702C26.0792 25.9702 25.1134 25.8306 24.2057 25.5513C23.3214 25.2953 22.5069 24.9113 21.7621 24.3993C20.901 23.8408 20.2145 23.2008 19.7025 22.4794C19.1905 21.7579 18.7483 20.8736 18.376 19.8263C18.1898 19.291 18.2014 18.8256 18.4109 18.43C18.6203 18.0576 18.9229 17.8016 19.3185 17.662C19.7142 17.5223 20.0981 17.5456 20.4705 17.7318C20.8661 17.918 21.1687 18.2903 21.3781 18.8489C21.6109 19.547 21.8785 20.1172 22.181 20.5594C22.5069 21.0016 22.949 21.4205 23.5076 21.8161C23.9963 22.1419 24.5432 22.3863 25.1483 22.5492C25.7534 22.7354 26.405 22.8285 27.1032 22.8285C28.2435 22.8285 29.2559 22.5841 30.1402 22.0954C31.0479 21.6299 31.746 20.9783 32.2348 20.1405C32.7467 19.3027 33.0027 18.3369 33.0027 17.2431C33.0027 16.1493 32.7467 15.1834 32.2348 14.3456C31.746 13.5078 31.0479 12.8562 30.1402 12.3907C29.2559 11.9253 28.2435 11.6926 27.1032 11.6926C26.405 11.6926 25.7417 11.774 25.1134 11.9369C24.5083 12.1231 23.9614 12.3791 23.4727 12.7049C23.1003 12.9609 22.7861 13.2286 22.5301 13.5078C22.2741 13.8104 22.053 14.1362 21.8669 14.4853C21.6807 14.8344 21.5178 15.2184 21.3781 15.6373C21.1687 16.1958 20.8661 16.5682 20.4705 16.7543C20.0981 16.9405 19.7142 16.9638 19.3185 16.8242C18.9229 16.6845 18.6203 16.4169 18.4109 16.0213C18.2014 15.6489 18.1898 15.1834 18.376 14.6249Z" fill="#EA6060"/>
<path d="M17.7686 4.46689C17.3962 5.14179 17.0355 5.81669 16.6864 6.49159C16.3373 7.14322 15.9766 7.79485 15.6042 8.44648C15.1388 9.28429 14.7082 10.0639 14.3126 10.7854C13.917 11.5068 13.5213 12.2283 13.1257 12.9497C12.7301 13.6712 12.3112 14.4508 11.869 15.2886C11.5432 15.8937 11.2523 16.5453 10.9963 17.2435C10.7403 17.9417 10.6123 18.6864 10.6123 19.4776C10.6123 19.9896 10.6123 20.4784 10.6123 20.9438C10.6123 21.4093 10.6123 21.8514 10.6123 22.2703C10.6123 22.6892 10.6123 23.0965 10.6123 23.4921C10.6123 23.8878 10.6123 24.2718 10.6123 24.6441C10.6123 25.1096 10.5075 25.4936 10.2981 25.7961C10.0886 26.0754 9.82099 26.2616 9.49518 26.3547C9.19264 26.4478 8.87846 26.4478 8.55264 26.3547C8.2501 26.2616 7.9941 26.0754 7.78465 25.7961C7.5752 25.4936 7.47047 25.1096 7.47047 24.6441C7.47047 24.295 7.47047 23.9343 7.47047 23.562C7.47047 23.1896 7.47047 22.794 7.47047 22.3751C7.47047 21.9562 7.47047 21.5024 7.47047 21.0136C7.47047 20.5249 7.47047 20.0013 7.47047 19.4427C7.47047 18.5584 7.40065 17.8369 7.26102 17.2784C7.14466 16.7199 6.95848 16.2195 6.70248 15.7773C6.46975 15.3119 6.16721 14.8348 5.79485 14.3461C5.44576 13.8341 5.05013 13.1941 4.60795 12.4261C4.23559 11.7512 3.88651 11.1345 3.56069 10.5759C3.23488 9.9941 2.90906 9.40065 2.58325 8.79557C2.2807 8.19048 1.94325 7.53885 1.57089 6.84068C1.19853 6.1425 0.767992 5.3396 0.27927 4.43198C-2.16742e-08 3.91998 -0.0698175 3.46617 0.0698175 3.07054C0.209453 2.65163 0.46545 2.34909 0.83781 2.16291C1.21017 1.95346 1.6058 1.90691 2.02471 2.02327C2.44361 2.11636 2.7927 2.43054 3.07197 2.96581C3.53742 3.85017 3.95632 4.64143 4.32868 5.3396C4.70104 6.01451 5.0385 6.6545 5.34104 7.25959C5.66685 7.8414 5.98103 8.42321 6.28357 9.00502C6.60939 9.58683 6.95848 10.2036 7.33084 10.8552C7.88938 11.8094 8.36646 12.6006 8.7621 13.229C9.181 13.8341 9.53009 14.4042 9.80936 14.9395C10.0886 15.4748 10.2864 16.0915 10.4028 16.7897C10.5424 17.4646 10.6123 18.3489 10.6123 19.4427C10.6123 20.1409 10.6123 20.7925 10.6123 21.3976C10.6123 22.0027 10.6123 22.5729 10.6123 23.1082C10.6123 23.6201 10.6123 24.1321 10.6123 24.6441C10.6123 25.1096 10.5075 25.4936 10.2981 25.7961C10.0886 26.0754 9.82099 26.2616 9.49518 26.3547C9.19264 26.4478 8.87846 26.4478 8.55264 26.3547C8.2501 26.2616 7.9941 26.0754 7.78465 25.7961C7.5752 25.4936 7.47047 25.1096 7.47047 24.6441C7.47047 24.295 7.47047 23.9343 7.47047 23.562C7.47047 23.1896 7.47047 22.794 7.47047 22.3751C7.47047 21.9562 7.47047 21.514 7.47047 21.0485C7.47047 20.5598 7.47047 20.0362 7.47047 19.4776C7.47047 18.3838 7.62174 17.3715 7.92428 16.4406C8.2501 15.5097 8.6341 14.637 9.07627 13.8224C9.54172 12.9613 9.97226 12.1701 10.3679 11.4486C10.7635 10.7272 11.1592 10.0057 11.5548 9.28429C11.9504 8.56284 12.3926 7.77158 12.8813 6.9105C13.1141 6.46832 13.3468 6.02614 13.5795 5.58397C13.8122 5.14179 14.045 4.69961 14.2777 4.25743C14.5337 3.81526 14.7897 3.37308 15.0457 2.9309C15.3249 2.41891 15.674 2.11636 16.0929 2.02327C16.5118 1.90691 16.8958 1.95346 17.2449 2.16291C17.6173 2.34909 17.8733 2.65163 18.0129 3.07054C18.1525 3.48944 18.0711 3.95489 17.7686 4.46689Z" fill="white"/>
</svg>
