<svg width="286" height="89" viewBox="0 0 286 89" fill="none" xmlns="http://www.w3.org/2000/svg">
<path d="M286.002 28.2237C286.002 29.8877 286.002 31.4237 286.002 32.8317C286.002 34.2397 286.002 35.7437 286.002 37.3437C286.002 38.8797 286.002 40.6717 286.002 42.7197C286.002 44.7037 286.002 47.0717 286.002 49.8237C286.002 53.4717 285.426 56.7037 284.274 59.5197C283.122 62.3357 281.49 64.7357 279.378 66.7197C277.33 68.6397 274.898 70.1117 272.082 71.1357C269.33 72.1597 266.322 72.6717 263.058 72.6717C259.794 72.6717 256.754 72.0637 253.938 70.8477C251.122 69.6317 248.658 67.9037 246.546 65.6637C244.434 63.4237 242.802 60.7997 241.65 57.7917C240.498 54.7197 239.922 51.3597 239.922 47.7117C239.922 42.8477 240.914 38.5597 242.898 34.8477C244.946 31.0717 247.698 28.1277 251.154 26.0157C254.674 23.9037 258.61 22.8477 262.962 22.8477C266.226 22.8477 269.234 23.4557 271.986 24.6717C274.802 25.8237 277.234 27.5197 279.282 29.7597C281.394 31.9357 283.026 34.5277 284.178 37.5357C285.394 40.5437 286.002 43.8717 286.002 47.5197C286.002 48.9917 286.002 50.4317 286.002 51.8397C286.002 53.1837 286.002 54.4957 286.002 55.7757C286.002 56.9917 286.002 58.1437 286.002 59.2317C286.002 60.9597 286.002 62.5597 286.002 64.0317C286.002 65.5037 286.002 67.1037 286.002 68.8317C286.002 70.4317 285.554 71.6477 284.658 72.4797C283.826 73.3117 282.834 73.7277 281.682 73.7277C280.53 73.7277 279.506 73.3117 278.61 72.4797C277.778 71.6477 277.362 70.4317 277.362 68.8317C277.362 67.8077 277.362 66.7517 277.362 65.6637C277.362 64.5757 277.362 63.5197 277.362 62.4957C277.362 61.4077 277.362 60.3197 277.362 59.2317C277.362 58.5277 277.362 57.4397 277.362 55.9677C277.362 54.4317 277.362 52.8957 277.362 51.3597C277.362 49.7597 277.362 48.4797 277.362 47.5197C277.362 44.3837 276.754 41.5997 275.538 39.1677C274.322 36.7357 272.626 34.8477 270.45 33.5037C268.274 32.1597 265.778 31.4877 262.962 31.4877C260.85 31.4877 258.898 31.9037 257.106 32.7357C255.314 33.5037 253.778 34.6237 252.498 36.0957C251.282 37.5037 250.322 39.1997 249.618 41.1837C248.914 43.1677 248.562 45.3437 248.562 47.7117C248.562 50.0797 248.914 52.2557 249.618 54.2397C250.322 56.2237 251.314 57.9517 252.594 59.4237C253.874 60.8957 255.41 62.0477 257.202 62.8797C258.994 63.6477 260.946 64.0317 263.058 64.0317C265.17 64.0317 267.09 63.7437 268.818 63.1677C270.61 62.5917 272.146 61.7277 273.426 60.5757C274.706 59.3597 275.666 57.8557 276.306 56.0637C277.01 54.2717 277.362 52.1917 277.362 49.8237C277.362 47.9677 277.362 46.0157 277.362 43.9677C277.362 41.9197 277.362 39.9037 277.362 37.9197C277.362 35.9357 277.362 34.1117 277.362 32.4477C277.362 30.7197 277.362 29.3117 277.362 28.2237C277.362 26.6237 277.778 25.4077 278.61 24.5757C279.506 23.7437 280.53 23.3277 281.682 23.3277C282.834 23.3277 283.826 23.7437 284.658 24.5757C285.554 25.4077 286.002 26.6237 286.002 28.2237Z" fill="#1C1C1C"/>
<path d="M220.68 67.776C220.68 66.432 220.68 64.992 220.68 63.456C220.68 61.92 220.68 60.384 220.68 58.848C220.68 57.312 220.68 55.872 220.68 54.528C220.68 49.408 220.68 43.808 220.68 37.728C220.68 31.648 220.68 24.8 220.68 17.184C220.68 15.456 220.68 13.44 220.68 11.136C220.68 8.832 220.68 6.752 220.68 4.896C220.68 3.296 221.096 2.08 221.928 1.248C222.824 0.416 223.848 0 225 0C226.152 0 227.144 0.416 227.976 1.248C228.872 2.08 229.32 3.296 229.32 4.896C229.32 6.432 229.32 7.87201 229.32 9.216C229.32 10.496 229.32 11.808 229.32 13.152C229.32 14.432 229.32 15.776 229.32 17.184C229.32 20.576 229.32 24.192 229.32 28.032C229.32 31.872 229.32 36 229.32 40.416C229.32 44.768 229.32 49.472 229.32 54.528C229.32 56.128 229.32 57.632 229.32 59.04C229.32 60.448 229.32 61.856 229.32 63.264C229.32 64.672 229.32 66.176 229.32 67.776C229.32 69.376 228.872 70.592 227.976 71.424C227.144 72.256 226.152 72.672 225 72.672C223.848 72.672 222.824 72.256 221.928 71.424C221.096 70.592 220.68 69.376 220.68 67.776Z" fill="#1C1C1C"/>
<path d="M164.232 83.6157C164.232 82.3357 164.232 80.9277 164.232 79.3917C164.232 77.8557 164.232 76.2237 164.232 74.4957C164.232 72.8317 164.232 71.1357 164.232 69.4077C164.232 67.7437 164.232 65.8237 164.232 63.6477C164.232 61.4717 164.232 59.0397 164.232 56.3517C164.232 53.5997 164.232 50.6877 164.232 47.6157C164.232 42.7517 165.224 38.4637 167.208 34.7517C169.192 31.0397 171.912 28.1277 175.368 26.0157C178.824 23.9037 182.76 22.8477 187.176 22.8477C191.528 22.8477 195.432 23.9357 198.888 26.1117C202.408 28.2237 205.192 31.1677 207.24 34.9437C209.288 38.6557 210.312 42.9437 210.312 47.8077C210.312 51.4557 209.704 54.8157 208.488 57.8877C207.336 60.8957 205.704 63.5197 203.592 65.7597C201.48 67.9357 199.016 69.6317 196.2 70.8477C193.448 72.0637 190.472 72.6717 187.272 72.6717C184.008 72.6717 180.968 72.0637 178.152 70.8477C175.336 69.5677 172.872 67.8397 170.76 65.6637C168.712 63.4237 167.112 60.7997 165.96 57.7917C164.808 54.7837 164.232 51.5197 164.232 47.9997C164.232 45.8877 164.232 43.6157 164.232 41.1837C164.232 38.6877 164.232 36.3197 164.232 34.0797C164.232 31.7757 164.232 29.8557 164.232 28.3197C164.232 26.6557 164.648 25.4397 165.48 24.6717C166.376 23.8397 167.4 23.4237 168.552 23.4237C169.704 23.4237 170.696 23.8397 171.528 24.6717C172.424 25.5037 172.872 26.7197 172.872 28.3197C172.872 30.6237 172.872 32.6717 172.872 34.4637C172.872 36.2557 172.872 38.1757 172.872 40.2237C172.872 42.2717 172.872 44.8637 172.872 47.9997C172.872 50.3037 173.224 52.4157 173.928 54.3357C174.632 56.2557 175.624 57.9517 176.904 59.4237C178.184 60.8957 179.688 62.0477 181.416 62.8797C183.208 63.6477 185.16 64.0317 187.272 64.0317C189.32 64.0317 191.208 63.6477 192.936 62.8797C194.728 62.0477 196.264 60.9277 197.544 59.5197C198.824 58.0477 199.816 56.3197 200.52 54.3357C201.288 52.3517 201.672 50.1757 201.672 47.8077C201.672 45.4397 201.32 43.2637 200.616 41.2797C199.912 39.2957 198.92 37.5677 197.64 36.0957C196.36 34.6237 194.824 33.5037 193.032 32.7357C191.24 31.9037 189.288 31.4877 187.176 31.4877C184.296 31.4877 181.768 32.1917 179.592 33.5997C177.48 34.9437 175.816 36.8317 174.6 39.2637C173.448 41.6957 172.872 44.4797 172.872 47.6157C172.872 49.7277 172.872 51.9677 172.872 54.3357C172.872 56.6397 172.872 59.0397 172.872 61.5357C172.872 63.9677 172.872 66.4317 172.872 68.9277C172.872 71.1037 172.872 72.9917 172.872 74.5917C172.872 76.1917 172.872 77.6957 172.872 79.1037C172.872 80.5117 172.872 82.0157 172.872 83.6157C172.872 85.2157 172.424 86.4317 171.528 87.2637C170.696 88.0957 169.704 88.5117 168.552 88.5117C167.4 88.5117 166.376 88.0957 165.48 87.2637C164.648 86.4317 164.232 85.2157 164.232 83.6157Z" fill="#1C1C1C"/>
<path d="M111.784 64.8394C109.936 62.664 108.477 60.4546 107.408 58.2113C106.426 55.9445 105.845 53.4294 105.667 50.6661C105.495 48.2759 105.701 45.808 106.284 43.2624C106.867 40.7168 107.878 38.1969 109.318 35.7028C111.718 31.5459 114.733 28.372 118.362 26.1814C122.079 23.9673 126.018 22.8417 130.178 22.8046C134.425 22.7442 138.516 23.8499 142.451 26.1219C146.442 28.4259 149.445 31.4162 151.461 35.0926C153.564 38.7457 154.559 42.7192 154.445 47.0134C154.418 51.284 153.204 55.4979 150.804 59.6548C149.396 62.0935 147.736 64.2017 145.822 65.9793C143.997 67.7334 141.962 69.1453 139.719 70.215C137.205 71.4977 134.736 72.2528 132.314 72.4801C129.892 72.7075 127.178 72.5446 124.172 71.9914C122.641 71.6988 121.548 71.0311 120.894 69.9882C120.295 68.9774 120.102 67.9049 120.313 66.7706C120.525 65.6364 121.108 64.7539 122.063 64.1231C123.051 63.4368 124.354 63.2283 125.972 63.4975C127.955 63.9032 129.681 64.0498 131.15 63.9373C132.651 63.7693 134.256 63.2923 135.967 62.506C137.415 61.7901 138.749 60.8236 139.969 59.6065C141.244 58.4215 142.362 56.9975 143.322 55.3348C144.89 52.6189 145.7 49.8719 145.752 47.0937C145.891 44.2921 145.299 41.7334 143.976 39.4174C142.685 37.0461 140.736 35.1084 138.131 33.6044C135.526 32.1004 132.874 31.3821 130.175 31.4494C127.508 31.4614 124.996 32.2281 122.639 33.7497C120.315 35.2159 118.368 37.3069 116.8 40.0228C115.84 41.6855 115.122 43.3772 114.646 45.0977C114.258 46.7947 114.116 48.4492 114.219 50.0612C114.317 51.3 114.523 52.4162 114.836 53.4099C115.204 54.4356 115.676 55.4101 116.252 56.3335C116.827 57.257 117.517 58.1729 118.323 59.0815C119.365 60.3483 119.836 61.5808 119.736 62.7791C119.667 63.9219 119.194 64.8684 118.318 65.6186C117.441 66.3689 116.388 66.7214 115.158 66.6762C113.983 66.6631 112.858 66.0508 111.784 64.8394Z" fill="#5A61FF"/>
<path d="M50.5296 40.2118C51.4896 37.5238 52.6736 35.1558 54.0816 33.1078C55.5536 31.1238 57.4416 29.3638 59.7456 27.8278C61.7296 26.4838 63.9696 25.4278 66.4656 24.6598C68.9616 23.8918 71.6496 23.5078 74.5296 23.5078C79.3296 23.5078 83.5856 24.5318 87.2976 26.5798C91.0736 28.6918 94.0176 31.5398 96.1296 35.1238C98.3056 38.7718 99.3936 42.8678 99.3936 47.4118C99.3936 52.0198 98.3056 56.1158 96.1296 59.6998C94.0176 63.3478 91.0736 66.1958 87.2976 68.2438C83.5856 70.3558 79.3296 71.4118 74.5296 71.4118C71.7136 71.4118 69.0576 71.0278 66.5616 70.2598C64.1296 69.5558 61.8896 68.4998 59.8416 67.0918C57.4736 65.5558 55.5856 63.7958 54.1776 61.8118C52.7696 59.8278 51.5536 57.3958 50.5296 54.5158C50.0176 53.0438 50.0496 51.7638 50.6256 50.6758C51.2016 49.6518 52.0336 48.9478 53.1216 48.5638C54.2096 48.1798 55.2656 48.2438 56.2896 48.7558C57.3776 49.2678 58.2096 50.2918 58.7856 51.8278C59.4256 53.7478 60.1616 55.3158 60.9936 56.5318C61.8896 57.7478 63.1056 58.8998 64.6416 59.9878C65.9856 60.8838 67.4896 61.5558 69.1536 62.0038C70.8176 62.5158 72.6096 62.7718 74.5296 62.7718C77.6656 62.7718 80.4496 62.0998 82.8816 60.7558C85.3776 59.4758 87.2976 57.6838 88.6416 55.3798C90.0496 53.0758 90.7536 50.4198 90.7536 47.4118C90.7536 44.4038 90.0496 41.7478 88.6416 39.4438C87.2976 37.1398 85.3776 35.3478 82.8816 34.0678C80.4496 32.7878 77.6656 32.1478 74.5296 32.1478C72.6096 32.1478 70.7856 32.3718 69.0576 32.8198C67.3936 33.3318 65.8896 34.0358 64.5456 34.9318C63.5216 35.6358 62.6576 36.3718 61.9536 37.1398C61.2496 37.9718 60.6416 38.8678 60.1296 39.8278C59.6176 40.7878 59.1696 41.8438 58.7856 42.9958C58.2096 44.5318 57.3776 45.5558 56.2896 46.0678C55.2656 46.5798 54.2096 46.6438 53.1216 46.2598C52.0336 45.8758 51.2016 45.1398 50.6256 44.0518C50.0496 43.0278 50.0176 41.7478 50.5296 40.2118Z" fill="#EA6060"/>
<path d="M48.864 12.2879C47.84 14.1439 46.848 15.9999 45.888 17.8559C44.928 19.6479 43.936 21.4399 42.912 23.2319C41.632 25.5359 40.448 27.6799 39.36 29.6639C38.272 31.6479 37.184 33.6319 36.096 35.6159C35.008 37.5999 33.856 39.7439 32.64 42.0479C31.744 43.7119 30.944 45.5039 30.24 47.4239C29.536 49.3439 29.184 51.3919 29.184 53.5679C29.184 54.9759 29.184 56.3199 29.184 57.5999C29.184 58.8799 29.184 60.0959 29.184 61.2479C29.184 62.3999 29.184 63.5199 29.184 64.6079C29.184 65.6959 29.184 66.7519 29.184 67.7759C29.184 69.0559 28.896 70.1119 28.32 70.9439C27.744 71.7119 27.008 72.2239 26.112 72.4799C25.28 72.7359 24.416 72.7359 23.52 72.4799C22.688 72.2239 21.984 71.7119 21.408 70.9439C20.832 70.1119 20.544 69.0559 20.544 67.7759C20.544 66.8159 20.544 65.8239 20.544 64.7999C20.544 63.7759 20.544 62.6879 20.544 61.5359C20.544 60.3839 20.544 59.1359 20.544 57.7919C20.544 56.4479 20.544 55.0079 20.544 53.4719C20.544 51.0399 20.352 49.0559 19.968 47.5199C19.648 45.9839 19.136 44.6079 18.432 43.3919C17.792 42.1119 16.96 40.7999 15.936 39.4559C14.976 38.0479 13.888 36.2879 12.672 34.1759C11.648 32.3199 10.688 30.6239 9.792 29.0879C8.896 27.4879 8 25.8559 7.104 24.1919C6.272 22.5279 5.344 20.7359 4.32 18.8159C3.296 16.8959 2.112 14.6879 0.768 12.1919C-5.96046e-08 10.7839 -0.192 9.53591 0.192 8.44791C0.576 7.29591 1.28 6.46391 2.304 5.95191C3.328 5.37591 4.416 5.24791 5.568 5.56791C6.72 5.82391 7.68 6.68791 8.448 8.15991C9.728 10.5919 10.88 12.7679 11.904 14.6879C12.928 16.5439 13.856 18.3039 14.688 19.9679C15.584 21.5679 16.448 23.1679 17.28 24.7679C18.176 26.3679 19.136 28.0639 20.16 29.8559C21.696 32.4799 23.008 34.6559 24.096 36.3839C25.248 38.0479 26.208 39.6159 26.976 41.0879C27.744 42.5599 28.288 44.2559 28.608 46.1759C28.992 48.0319 29.184 50.4639 29.184 53.4719C29.184 55.3919 29.184 57.1839 29.184 58.8479C29.184 60.5119 29.184 62.0799 29.184 63.5519C29.184 64.9599 29.184 66.3679 29.184 67.7759C29.184 69.0559 28.896 70.1119 28.32 70.9439C27.744 71.7119 27.008 72.2239 26.112 72.4799C25.28 72.7359 24.416 72.7359 23.52 72.4799C22.688 72.2239 21.984 71.7119 21.408 70.9439C20.832 70.1119 20.544 69.0559 20.544 67.7759C20.544 66.8159 20.544 65.8239 20.544 64.7999C20.544 63.7759 20.544 62.6879 20.544 61.5359C20.544 60.3839 20.544 59.1679 20.544 57.8879C20.544 56.5439 20.544 55.1039 20.544 53.5679C20.544 50.5599 20.96 47.7759 21.792 45.2159C22.688 42.6559 23.744 40.2559 24.96 38.0159C26.24 35.6479 27.424 33.4719 28.512 31.4879C29.6 29.5039 30.688 27.5199 31.776 25.5359C32.864 23.5519 34.08 21.3759 35.424 19.0079C36.064 17.7919 36.704 16.5759 37.344 15.3599C37.984 14.1439 38.624 12.9279 39.264 11.7119C39.968 10.4959 40.672 9.27991 41.376 8.06391C42.144 6.65591 43.104 5.82391 44.256 5.56791C45.408 5.24791 46.464 5.37591 47.424 5.95191C48.448 6.46391 49.152 7.29591 49.536 8.44791C49.92 9.59991 49.696 10.8799 48.864 12.2879Z" fill="#1C1C1C"/>
</svg>
